<svg width="24" height="24" viewBox="0 0 24 24" fill="none" xmlns="http://www.w3.org/2000/svg">
<path d="M20.9542 10.8274C21.6785 10.8274 21.9808 9.8969 21.3925 9.468L12.4417 2.95706C12.3139 2.86341 12.1596 2.81292 12.0011 2.81292C11.8427 2.81292 11.6883 2.86341 11.5605 2.95706L2.60972 9.468C2.02143 9.89456 2.32378 10.8274 3.05034 10.8274H4.50112V19.593H2.81362C2.7105 19.593 2.62612 19.6774 2.62612 19.7805V20.9992C2.62612 21.1024 2.7105 21.1867 2.81362 21.1867H21.1886C21.2917 21.1867 21.3761 21.1024 21.3761 20.9992V19.7805C21.3761 19.6774 21.2917 19.593 21.1886 19.593H19.5011V10.8274H20.9542ZM12.0011 4.6094L18.355 9.23128H5.64721L12.0011 4.6094ZM6.18862 10.8274H8.93081V19.593H6.18862V10.8274ZM10.6183 10.8274H13.3605V19.593H10.6183V10.8274ZM17.8136 19.593H15.048V10.8274H17.8136V19.593Z" fill="#0095DA"/>
</svg>
