<svg viewBox="0 0 24 25" className="" xmlns="http://www.w3.org/2000/svg"  >
    <path d="M19.125 18.027h-.563v-7.969c0-3.307-2.444-6.04-5.625-6.494v-.912c0-.518-.419-.937-.937-.937s-.938.42-.938.937v.912c-3.18.454-5.624 3.187-5.624 6.494v7.969h-.563c-.415 0-.75.335-.75.75v.75c0 .103.084.188.188.188h5.062c0 1.448 1.177 2.625 2.625 2.625s2.625-1.177 2.625-2.625h5.063c.103 0 .187-.085.187-.188v-.75c0-.415-.335-.75-.75-.75zM12 20.84c-.621 0-1.125-.504-1.125-1.125h2.25c0 .62-.504 1.125-1.125 1.125zm-4.875-2.813v-7.969c0-1.303.506-2.526 1.427-3.447.921-.921 2.145-1.428 3.448-1.428s2.527.507 3.448 1.428c.92.92 1.427 2.144 1.427 3.447v7.969h-9.75z"/>
</svg>
