<svg width="18" height="18" viewBox="0 0 18 18" fill="none" xmlns="http://www.w3.org/2000/svg">
<path d="M14.625 1.125H5.20312C5.12578 1.125 5.0625 1.18828 5.0625 1.26562V2.25C5.0625 2.32734 5.12578 2.39062 5.20312 2.39062H13.9219V14.4844C13.9219 14.5617 13.9852 14.625 14.0625 14.625H15.0469C15.1242 14.625 15.1875 14.5617 15.1875 14.4844V1.6875C15.1875 1.37637 14.9361 1.125 14.625 1.125ZM12.375 3.375H3.375C3.06387 3.375 2.8125 3.62637 2.8125 3.9375V13.2662C2.8125 13.4156 2.87227 13.558 2.97773 13.6635L6.02402 16.7098C6.0627 16.7484 6.10664 16.7801 6.1541 16.8064V16.8398H6.22793C6.28945 16.8627 6.35449 16.875 6.42129 16.875H12.375C12.6861 16.875 12.9375 16.6236 12.9375 16.3125V3.9375C12.9375 3.62637 12.6861 3.375 12.375 3.375ZM6.15234 15.0504L4.63887 13.5352H6.15234V15.0504ZM11.6719 15.6094H7.27734V13.1133C7.27734 12.7248 6.9627 12.4102 6.57422 12.4102H4.07812V4.64062H11.6719V15.6094Z" fill="white"/>
</svg>
