<svg width="20" height="20" viewBox="0 0 20 20" fill="none" xmlns="http://www.w3.org/2000/svg">
<path d="M10 1.25C14.8125 1.25 18.75 5.1875 18.75 10C18.75 14.8125 14.8125 18.75 10 18.75C5.1875 18.75 1.25 14.8125 1.25 10C1.25 5.1875 5.1875 1.25 10 1.25ZM10 0C4.46875 0 0 4.46875 0 10C0 15.5312 4.46875 20 10 20C15.5312 20 20 15.5312 20 10C20 4.46875 15.5312 0 10 0Z" fill="#FFEB9E"/>
<path d="M10 18.75C5.1875 18.75 1.25 14.8125 1.25 10C1.25 5.1875 5.1875 1.25 10 1.25C14.8125 1.25 18.75 5.1875 18.75 10C18.75 14.8125 14.8125 18.75 10 18.75Z" fill="#FFDE61"/>
<path d="M1.25 10C1.25 5.1875 5.1875 1.25 10 1.25C12.4688 1.25 14.7188 2.28125 16.3125 3.9375L17.1875 3.0625C15.375 1.1875 12.8125 0 10 0C4.46875 0 0 4.46875 0 10C0 12.8125 1.1875 15.375 3.0625 17.1875L3.9375 16.3125C2.28125 14.7188 1.25 12.4688 1.25 10Z" fill="#FFF3C2"/>
<path d="M10.3477 6.34001C10.521 6.42668 10.621 6.56335 10.6477 6.75001C10.681 6.93668 10.6343 7.10668 10.5077 7.26001C10.421 7.38001 10.3077 7.44668 10.1677 7.46001C10.0343 7.47335 9.89766 7.44668 9.75766 7.38001C9.59766 7.30668 9.42766 7.25001 9.24766 7.21001C9.07432 7.17001 8.89099 7.15001 8.69766 7.15001C8.33766 7.15001 8.01432 7.20668 7.72766 7.32001C7.44766 7.43335 7.20766 7.59668 7.00766 7.81001C6.80766 8.01668 6.65432 8.26335 6.54766 8.55001C6.44766 8.83668 6.39766 9.15335 6.39766 9.50001C6.39766 9.90668 6.45432 10.26 6.56766 10.56C6.68766 10.86 6.85099 11.11 7.05766 11.31C7.26432 11.51 7.50766 11.66 7.78766 11.76C8.06766 11.8533 8.37099 11.9 8.69766 11.9C8.87766 11.9 9.05766 11.8833 9.23766 11.85C9.41766 11.8167 9.59099 11.7567 9.75766 11.67C9.89766 11.6033 10.0343 11.58 10.1677 11.6C10.3077 11.62 10.4243 11.69 10.5177 11.81C10.651 11.9767 10.6977 12.15 10.6577 12.33C10.6243 12.5033 10.5243 12.63 10.3577 12.71C10.1843 12.7967 10.0043 12.87 9.81766 12.93C9.63766 12.9833 9.45432 13.0233 9.26766 13.05C9.08099 13.0833 8.89099 13.1 8.69766 13.1C8.21766 13.1 7.76099 13.0233 7.32766 12.87C6.90099 12.7167 6.51766 12.49 6.17766 12.19C5.84432 11.89 5.58099 11.5167 5.38766 11.07C5.19432 10.6167 5.09766 10.0933 5.09766 9.50001C5.09766 8.98668 5.18432 8.51335 5.35766 8.08001C5.53766 7.64668 5.78766 7.27335 6.10766 6.96001C6.43432 6.64001 6.81766 6.39335 7.25766 6.22001C7.69766 6.04001 8.17766 5.95001 8.69766 5.95001C8.99099 5.95001 9.27766 5.98335 9.55766 6.05001C9.83766 6.11668 10.101 6.21335 10.3477 6.34001Z" fill="#5F5F5F"/>
<path d="M12.2172 13C12.0439 13 11.9005 12.9433 11.7872 12.83C11.6739 12.71 11.6172 12.5633 11.6172 12.39V8.26001C11.6172 8.08668 11.6739 7.94335 11.7872 7.83001C11.9005 7.71001 12.0439 7.65001 12.2172 7.65001C12.3905 7.65001 12.5339 7.71001 12.6472 7.83001C12.7605 7.94335 12.8172 8.08668 12.8172 8.26001V9.20001L12.7472 8.53001C12.8205 8.37001 12.9139 8.23001 13.0272 8.11001C13.1472 7.98335 13.2805 7.88001 13.4272 7.80001C13.5739 7.71335 13.7305 7.65001 13.8972 7.61001C14.0639 7.57001 14.2305 7.55001 14.3972 7.55001C14.5972 7.55001 14.7639 7.60668 14.8972 7.72001C15.0372 7.83335 15.1072 7.96668 15.1072 8.12001C15.1072 8.34001 15.0505 8.50001 14.9372 8.60001C14.8239 8.69335 14.7005 8.74001 14.5672 8.74001C14.4405 8.74001 14.3239 8.71668 14.2172 8.67001C14.1172 8.62335 14.0005 8.60001 13.8672 8.60001C13.7472 8.60001 13.6239 8.63001 13.4972 8.69001C13.3772 8.74335 13.2639 8.83001 13.1572 8.95001C13.0572 9.07001 12.9739 9.22001 12.9072 9.40001C12.8472 9.57335 12.8172 9.78001 12.8172 10.02V12.39C12.8172 12.5633 12.7605 12.71 12.6472 12.83C12.5339 12.9433 12.3905 13 12.2172 13Z" fill="#5F5F5F"/>
</svg>
