<svg width="48" height="38" viewBox="0 0 48 38" fill="none" xmlns="http://www.w3.org/2000/svg">
<path d="M45.9375 0.4375H2.0625C1.1291 0.4375 0.375 1.1916 0.375 2.125V35.875C0.375 36.8084 1.1291 37.5625 2.0625 37.5625H45.9375C46.8709 37.5625 47.625 36.8084 47.625 35.875V2.125C47.625 1.1916 46.8709 0.4375 45.9375 0.4375ZM4.17188 4.23438H43.8281V10.5625H4.17188V4.23438ZM43.8281 33.7656H4.17188V15.2031H43.8281V33.7656ZM31.3301 30.3906H40.0312C40.2633 30.3906 40.4531 30.2008 40.4531 29.9688V26.1719C40.4531 25.9398 40.2633 25.75 40.0312 25.75H31.3301C31.098 25.75 30.9082 25.9398 30.9082 26.1719V29.9688C30.9082 30.2008 31.098 30.3906 31.3301 30.3906Z" fill="#F4F4F4"/>
</svg>
