<svg  xmlns="http://www.w3.org/2000/svg" fill="none" viewBox="0 0 54 54">
    <path fill="#f4f4f4" d="M43.875 3.375h-33.75c-.933 0-1.688.754-1.688 1.688v43.874c0 .934.755 1.688 1.688 1.688h33.75c.933 0 1.688-.754 1.688-1.688V5.063c0-.934-.755-1.688-1.688-1.688zm-31.64 3.797h29.53V18.14h-29.53V7.17zm29.53 25.312h-29.53V21.516h29.53v10.968zm0 14.344h-29.53V35.86h29.53v10.97zM16.032 12.656c0 .56.223 1.096.618 1.492.396.395.932.618 1.492.618.56 0 1.096-.223 1.491-.618.396-.396.618-.932.618-1.492 0-.56-.222-1.096-.618-1.491-.395-.396-.932-.618-1.491-.618-.56 0-1.096.222-1.492.618-.396.395-.618.932-.618 1.491zm0 14.344c0 .56.223 1.096.618 1.492.396.395.932.617 1.492.617.56 0 1.096-.222 1.491-.617.396-.396.618-.933.618-1.492 0-.56-.222-1.096-.618-1.492-.395-.395-.932-.617-1.491-.617-.56 0-1.096.222-1.492.617-.396.396-.618.933-.618 1.492zm0 14.344c0 .56.223 1.096.618 1.491.396.396.932.618 1.492.618.56 0 1.096-.222 1.491-.618.396-.395.618-.932.618-1.491 0-.56-.222-1.096-.618-1.492-.395-.395-.932-.618-1.491-.618-.56 0-1.096.223-1.492.618-.396.396-.618.932-.618 1.492z"/>
</svg>
