<svg width="131" height="24" viewBox="0 0 131 24" fill="none" xmlns="http://www.w3.org/2000/svg">
<path d="M8.4375 4.3125H8.25C8.35313 4.3125 8.4375 4.22812 8.4375 4.125V4.3125H15.5625V4.125C15.5625 4.22812 15.6469 4.3125 15.75 4.3125H15.5625V6H17.25V4.125C17.25 3.29766 16.5773 2.625 15.75 2.625H8.25C7.42266 2.625 6.75 3.29766 6.75 4.125V6H8.4375V4.3125ZM20.25 6H3.75C3.33516 6 3 6.33516 3 6.75V7.5C3 7.60313 3.08437 7.6875 3.1875 7.6875H4.60312L5.18203 19.9453C5.21953 20.7445 5.88047 21.375 6.67969 21.375H17.3203C18.1219 21.375 18.7805 20.7469 18.818 19.9453L19.3969 7.6875H20.8125C20.9156 7.6875 21 7.60313 21 7.5V6.75C21 6.33516 20.6648 6 20.25 6ZM17.1398 19.6875H6.86016L6.29297 7.6875H17.707L17.1398 19.6875Z" fill="#EC1C24"/>
<path d="M34.3906 7.2C35.268 7.2 36.0193 7.41933 36.6446 7.858C37.2793 8.28733 37.76 8.87533 38.0866 9.622C38.4226 10.3593 38.5906 11.1853 38.5906 12.1C38.5906 13.0147 38.4226 13.8453 38.0866 14.592C37.76 15.3293 37.2793 15.9173 36.6446 16.356C36.0193 16.7853 35.268 17 34.3906 17H31.0446C30.802 17 30.5966 16.9207 30.4286 16.762C30.27 16.594 30.1906 16.3887 30.1906 16.146V8.054C30.1906 7.81133 30.27 7.61067 30.4286 7.452C30.5966 7.284 30.802 7.2 31.0446 7.2H34.3906ZM34.2506 15.39C35.0906 15.39 35.7206 15.082 36.1406 14.466C36.5606 13.8407 36.7706 13.052 36.7706 12.1C36.7706 11.148 36.556 10.364 36.1266 9.748C35.7066 9.12267 35.0813 8.81 34.2506 8.81H31.9406V15.39H34.2506ZM46.8878 13.08C46.8785 13.304 46.7898 13.486 46.6218 13.626C46.4538 13.766 46.2578 13.836 46.0338 13.836H41.4138C41.5258 14.3867 41.7825 14.8207 42.1838 15.138C42.5851 15.446 43.0378 15.6 43.5418 15.6C43.9245 15.6 44.2231 15.5673 44.4378 15.502C44.6525 15.4273 44.8205 15.3527 44.9418 15.278C45.0725 15.194 45.1611 15.138 45.2078 15.11C45.3758 15.026 45.5345 14.984 45.6838 14.984C45.8798 14.984 46.0478 15.054 46.1878 15.194C46.3278 15.334 46.3978 15.4973 46.3978 15.684C46.3978 15.936 46.2671 16.1647 46.0058 16.37C45.7445 16.5847 45.3945 16.7667 44.9558 16.916C44.5171 17.0653 44.0738 17.14 43.6258 17.14C42.8418 17.14 42.1558 16.9767 41.5678 16.65C40.9891 16.3233 40.5411 15.8753 40.2238 15.306C39.9065 14.7273 39.7478 14.0787 39.7478 13.36C39.7478 12.5573 39.9158 11.8527 40.2518 11.246C40.5878 10.6393 41.0311 10.1773 41.5818 9.86C42.1325 9.53333 42.7205 9.37 43.3458 9.37C43.9618 9.37 44.5405 9.538 45.0818 9.874C45.6325 10.21 46.0711 10.6627 46.3978 11.232C46.7245 11.8013 46.8878 12.4173 46.8878 13.08ZM43.3458 10.91C42.2631 10.91 41.6238 11.4187 41.4278 12.436H45.0958V12.338C45.0585 11.946 44.8671 11.61 44.5218 11.33C44.1765 11.05 43.7845 10.91 43.3458 10.91ZM50.1089 16.146C50.1089 16.3887 50.0249 16.594 49.8569 16.762C49.6982 16.9207 49.4976 17 49.2549 17C49.0216 17 48.8256 16.9207 48.6669 16.762C48.5082 16.594 48.4289 16.3887 48.4289 16.146V7.494C48.4289 7.25133 48.5082 7.05067 48.6669 6.892C48.8349 6.724 49.0402 6.64 49.2829 6.64C49.5162 6.64 49.7122 6.724 49.8709 6.892C50.0296 7.05067 50.1089 7.25133 50.1089 7.494V16.146ZM58.6456 13.08C58.6363 13.304 58.5476 13.486 58.3796 13.626C58.2116 13.766 58.0156 13.836 57.7916 13.836H53.1716C53.2836 14.3867 53.5403 14.8207 53.9416 15.138C54.343 15.446 54.7956 15.6 55.2996 15.6C55.6823 15.6 55.981 15.5673 56.1956 15.502C56.4103 15.4273 56.5783 15.3527 56.6996 15.278C56.8303 15.194 56.919 15.138 56.9656 15.11C57.1336 15.026 57.2923 14.984 57.4416 14.984C57.6376 14.984 57.8056 15.054 57.9456 15.194C58.0856 15.334 58.1556 15.4973 58.1556 15.684C58.1556 15.936 58.025 16.1647 57.7636 16.37C57.5023 16.5847 57.1523 16.7667 56.7136 16.916C56.275 17.0653 55.8316 17.14 55.3836 17.14C54.5996 17.14 53.9136 16.9767 53.3256 16.65C52.747 16.3233 52.299 15.8753 51.9816 15.306C51.6643 14.7273 51.5056 14.0787 51.5056 13.36C51.5056 12.5573 51.6736 11.8527 52.0096 11.246C52.3456 10.6393 52.789 10.1773 53.3396 9.86C53.8903 9.53333 54.4783 9.37 55.1036 9.37C55.7196 9.37 56.2983 9.538 56.8396 9.874C57.3903 10.21 57.829 10.6627 58.1556 11.232C58.4823 11.8013 58.6456 12.4173 58.6456 13.08ZM55.1036 10.91C54.021 10.91 53.3816 11.4187 53.1856 12.436H56.8536V12.338C56.8163 11.946 56.625 11.61 56.2796 11.33C55.9343 11.05 55.5423 10.91 55.1036 10.91ZM63.6587 15.418C63.7894 15.418 63.9061 15.4833 64.0087 15.614C64.1207 15.7353 64.1767 15.8987 64.1767 16.104C64.1767 16.356 64.0367 16.5707 63.7567 16.748C63.4861 16.916 63.1781 17 62.8327 17C62.2541 17 61.7641 16.8787 61.3627 16.636C60.9707 16.384 60.7747 15.8567 60.7747 15.054V11.19H60.1307C59.9067 11.19 59.7201 11.1153 59.5707 10.966C59.4214 10.8167 59.3467 10.63 59.3467 10.406C59.3467 10.1913 59.4214 10.014 59.5707 9.874C59.7201 9.72467 59.9067 9.65 60.1307 9.65H60.7747V8.754C60.7747 8.51133 60.8541 8.31067 61.0127 8.152C61.1807 7.984 61.3861 7.9 61.6287 7.9C61.8621 7.9 62.0581 7.984 62.2167 8.152C62.3754 8.31067 62.4547 8.51133 62.4547 8.754V9.65H63.4487C63.6727 9.65 63.8594 9.72467 64.0087 9.874C64.1581 10.0233 64.2327 10.21 64.2327 10.434C64.2327 10.6487 64.1581 10.8307 64.0087 10.98C63.8594 11.12 63.6727 11.19 63.4487 11.19H62.4547V14.984C62.4547 15.18 62.5061 15.3247 62.6087 15.418C62.7114 15.502 62.8514 15.544 63.0287 15.544C63.1034 15.544 63.2061 15.5253 63.3367 15.488C63.4487 15.4413 63.5561 15.418 63.6587 15.418ZM72.4269 13.08C72.4175 13.304 72.3289 13.486 72.1609 13.626C71.9929 13.766 71.7969 13.836 71.5729 13.836H66.9529C67.0649 14.3867 67.3215 14.8207 67.7229 15.138C68.1242 15.446 68.5769 15.6 69.0809 15.6C69.4635 15.6 69.7622 15.5673 69.9769 15.502C70.1915 15.4273 70.3595 15.3527 70.4809 15.278C70.6115 15.194 70.7002 15.138 70.7469 15.11C70.9149 15.026 71.0735 14.984 71.2229 14.984C71.4189 14.984 71.5869 15.054 71.7269 15.194C71.8669 15.334 71.9369 15.4973 71.9369 15.684C71.9369 15.936 71.8062 16.1647 71.5449 16.37C71.2835 16.5847 70.9335 16.7667 70.4949 16.916C70.0562 17.0653 69.6129 17.14 69.1649 17.14C68.3809 17.14 67.6949 16.9767 67.1069 16.65C66.5282 16.3233 66.0802 15.8753 65.7629 15.306C65.4455 14.7273 65.2869 14.0787 65.2869 13.36C65.2869 12.5573 65.4549 11.8527 65.7909 11.246C66.1269 10.6393 66.5702 10.1773 67.1209 9.86C67.6715 9.53333 68.2595 9.37 68.8849 9.37C69.5009 9.37 70.0795 9.538 70.6209 9.874C71.1715 10.21 71.6102 10.6627 71.9369 11.232C72.2635 11.8013 72.4269 12.4173 72.4269 13.08ZM68.8849 10.91C67.8022 10.91 67.1629 11.4187 66.9669 12.436H70.6349V12.338C70.5975 11.946 70.4062 11.61 70.0609 11.33C69.7155 11.05 69.3235 10.91 68.8849 10.91ZM83.8138 9.37C84.0565 9.37 84.2571 9.44933 84.4158 9.608C84.5745 9.76667 84.6538 9.972 84.6538 10.224V16.146C84.6538 16.3887 84.5745 16.594 84.4158 16.762C84.2571 16.9207 84.0565 17 83.8138 17C83.5711 17 83.3705 16.9207 83.2118 16.762C83.0625 16.6033 82.9831 16.4027 82.9738 16.16C82.7405 16.4307 82.4231 16.664 82.0218 16.86C81.6298 17.0467 81.2145 17.14 80.7758 17.14C80.1318 17.14 79.5485 16.9767 79.0258 16.65C78.5031 16.314 78.0878 15.852 77.7798 15.264C77.4811 14.676 77.3318 14.0087 77.3318 13.262C77.3318 12.5153 77.4811 11.848 77.7798 11.26C78.0785 10.6627 78.4845 10.2007 78.9978 9.874C79.5205 9.538 80.0945 9.37 80.7198 9.37C81.1678 9.37 81.5878 9.454 81.9798 9.622C82.3718 9.78067 82.7031 9.986 82.9738 10.238V10.224C82.9738 9.98133 83.0531 9.78067 83.2118 9.622C83.3705 9.454 83.5711 9.37 83.8138 9.37ZM80.9858 15.6C81.5925 15.6 82.0871 15.3807 82.4698 14.942C82.8525 14.494 83.0438 13.934 83.0438 13.262C83.0438 12.59 82.8525 12.03 82.4698 11.582C82.0871 11.134 81.5925 10.91 80.9858 10.91C80.3885 10.91 79.8985 11.134 79.5158 11.582C79.1331 12.03 78.9418 12.59 78.9418 13.262C78.9418 13.934 79.1285 14.494 79.5018 14.942C79.8845 15.3807 80.3791 15.6 80.9858 15.6ZM89.7365 9.37C90.5298 9.37 91.1691 9.496 91.6545 9.748C92.1398 9.99067 92.3825 10.3173 92.3825 10.728C92.3825 10.9333 92.3218 11.1153 92.2005 11.274C92.0791 11.4233 91.9205 11.498 91.7245 11.498C91.5751 11.498 91.4538 11.4793 91.3605 11.442C91.2671 11.3953 91.1738 11.3393 91.0805 11.274C90.9965 11.1993 90.9125 11.1387 90.8285 11.092C90.7351 11.0453 90.5951 11.0033 90.4085 10.966C90.2311 10.9287 90.0865 10.91 89.9745 10.91C89.2745 10.91 88.7238 11.1293 88.3225 11.568C87.9305 11.9973 87.7345 12.562 87.7345 13.262C87.7345 13.934 87.9351 14.494 88.3365 14.942C88.7378 15.3807 89.2511 15.6 89.8765 15.6C90.3338 15.6 90.6745 15.544 90.8985 15.432C90.9545 15.404 91.0291 15.3573 91.1225 15.292C91.2251 15.2173 91.3185 15.1613 91.4025 15.124C91.4865 15.0867 91.5891 15.068 91.7105 15.068C91.9438 15.068 92.1258 15.1427 92.2565 15.292C92.3965 15.4413 92.4665 15.6327 92.4665 15.866C92.4665 16.09 92.3358 16.3 92.0745 16.496C91.8131 16.692 91.4678 16.8507 91.0385 16.972C90.6091 17.084 90.1518 17.14 89.6665 17.14C88.9478 17.14 88.3131 16.972 87.7625 16.636C87.2211 16.3 86.8011 15.838 86.5025 15.25C86.2038 14.6527 86.0545 13.99 86.0545 13.262C86.0545 12.506 86.2085 11.834 86.5165 11.246C86.8338 10.658 87.2725 10.2007 87.8325 9.874C88.3925 9.538 89.0271 9.37 89.7365 9.37ZM96.9415 9.37C97.7349 9.37 98.3742 9.496 98.8595 9.748C99.3449 9.99067 99.5875 10.3173 99.5875 10.728C99.5875 10.9333 99.5269 11.1153 99.4055 11.274C99.2842 11.4233 99.1255 11.498 98.9295 11.498C98.7802 11.498 98.6589 11.4793 98.5655 11.442C98.4722 11.3953 98.3789 11.3393 98.2855 11.274C98.2015 11.1993 98.1175 11.1387 98.0335 11.092C97.9402 11.0453 97.8002 11.0033 97.6135 10.966C97.4362 10.9287 97.2915 10.91 97.1795 10.91C96.4795 10.91 95.9289 11.1293 95.5275 11.568C95.1355 11.9973 94.9395 12.562 94.9395 13.262C94.9395 13.934 95.1402 14.494 95.5415 14.942C95.9429 15.3807 96.4562 15.6 97.0815 15.6C97.5389 15.6 97.8795 15.544 98.1035 15.432C98.1595 15.404 98.2342 15.3573 98.3275 15.292C98.4302 15.2173 98.5235 15.1613 98.6075 15.124C98.6915 15.0867 98.7942 15.068 98.9155 15.068C99.1489 15.068 99.3309 15.1427 99.4615 15.292C99.6015 15.4413 99.6715 15.6327 99.6715 15.866C99.6715 16.09 99.5409 16.3 99.2795 16.496C99.0182 16.692 98.6729 16.8507 98.2435 16.972C97.8142 17.084 97.3569 17.14 96.8715 17.14C96.1529 17.14 95.5182 16.972 94.9675 16.636C94.4262 16.3 94.0062 15.838 93.7075 15.25C93.4089 14.6527 93.2595 13.99 93.2595 13.262C93.2595 12.506 93.4135 11.834 93.7215 11.246C94.0389 10.658 94.4775 10.2007 95.0375 9.874C95.5975 9.538 96.2322 9.37 96.9415 9.37ZM108.081 13.262C108.081 14.0087 107.913 14.6807 107.577 15.278C107.241 15.866 106.779 16.3233 106.191 16.65C105.612 16.9767 104.973 17.14 104.273 17.14C103.563 17.14 102.919 16.9767 102.341 16.65C101.762 16.3233 101.305 15.866 100.969 15.278C100.633 14.6807 100.465 14.0087 100.465 13.262C100.465 12.5153 100.633 11.848 100.969 11.26C101.305 10.6627 101.762 10.2007 102.341 9.874C102.919 9.538 103.563 9.37 104.273 9.37C104.973 9.37 105.612 9.538 106.191 9.874C106.779 10.2007 107.241 10.6627 107.577 11.26C107.913 11.848 108.081 12.5153 108.081 13.262ZM106.401 13.262C106.401 12.8047 106.303 12.3987 106.107 12.044C105.92 11.68 105.663 11.4 105.337 11.204C105.019 11.008 104.665 10.91 104.273 10.91C103.881 10.91 103.521 11.008 103.195 11.204C102.877 11.4 102.621 11.68 102.425 12.044C102.238 12.3987 102.145 12.8047 102.145 13.262C102.145 13.7193 102.238 14.1253 102.425 14.48C102.621 14.8347 102.877 15.11 103.195 15.306C103.521 15.502 103.881 15.6 104.273 15.6C104.665 15.6 105.019 15.502 105.337 15.306C105.663 15.11 105.92 14.8347 106.107 14.48C106.303 14.1253 106.401 13.7193 106.401 13.262ZM115.042 9.51C115.285 9.51 115.486 9.594 115.644 9.762C115.803 9.92067 115.882 10.1213 115.882 10.364V13.92C115.882 14.928 115.602 15.7167 115.042 16.286C114.492 16.8553 113.703 17.14 112.676 17.14C111.65 17.14 110.861 16.8553 110.31 16.286C109.76 15.7167 109.484 14.928 109.484 13.92V10.364C109.484 10.1213 109.564 9.92067 109.722 9.762C109.881 9.594 110.082 9.51 110.324 9.51C110.567 9.51 110.768 9.594 110.926 9.762C111.085 9.92067 111.164 10.1213 111.164 10.364V13.92C111.164 14.4893 111.29 14.914 111.542 15.194C111.794 15.4647 112.172 15.6 112.676 15.6C113.19 15.6 113.572 15.4647 113.824 15.194C114.076 14.914 114.202 14.4893 114.202 13.92V10.364C114.202 10.1213 114.282 9.92067 114.44 9.762C114.599 9.594 114.8 9.51 115.042 9.51ZM121.705 9.37C122.657 9.37 123.315 9.65467 123.679 10.224C124.043 10.784 124.225 11.5633 124.225 12.562V16.146C124.225 16.3887 124.146 16.594 123.987 16.762C123.828 16.9207 123.628 17 123.385 17C123.142 17 122.942 16.9207 122.783 16.762C122.624 16.594 122.545 16.3887 122.545 16.146V12.562C122.545 12.0487 122.438 11.6473 122.223 11.358C122.008 11.0593 121.64 10.91 121.117 10.91C120.576 10.91 120.151 11.0687 119.843 11.386C119.535 11.694 119.381 12.086 119.381 12.562V16.146C119.381 16.3887 119.302 16.594 119.143 16.762C118.984 16.9207 118.784 17 118.541 17C118.298 17 118.098 16.9207 117.939 16.762C117.78 16.594 117.701 16.3887 117.701 16.146V10.364C117.701 10.1213 117.78 9.92067 117.939 9.762C118.098 9.594 118.298 9.51 118.541 9.51C118.784 9.51 118.984 9.594 119.143 9.762C119.302 9.92067 119.381 10.1213 119.381 10.364V10.602C119.633 10.266 119.96 9.97667 120.361 9.734C120.772 9.49133 121.22 9.37 121.705 9.37ZM129.653 15.418C129.784 15.418 129.9 15.4833 130.003 15.614C130.115 15.7353 130.171 15.8987 130.171 16.104C130.171 16.356 130.031 16.5707 129.751 16.748C129.48 16.916 129.172 17 128.827 17C128.248 17 127.758 16.8787 127.357 16.636C126.965 16.384 126.769 15.8567 126.769 15.054V11.19H126.125C125.901 11.19 125.714 11.1153 125.565 10.966C125.416 10.8167 125.341 10.63 125.341 10.406C125.341 10.1913 125.416 10.014 125.565 9.874C125.714 9.72467 125.901 9.65 126.125 9.65H126.769V8.754C126.769 8.51133 126.848 8.31067 127.007 8.152C127.175 7.984 127.38 7.9 127.623 7.9C127.856 7.9 128.052 7.984 128.211 8.152C128.37 8.31067 128.449 8.51133 128.449 8.754V9.65H129.443C129.667 9.65 129.854 9.72467 130.003 9.874C130.152 10.0233 130.227 10.21 130.227 10.434C130.227 10.6487 130.152 10.8307 130.003 10.98C129.854 11.12 129.667 11.19 129.443 11.19H128.449V14.984C128.449 15.18 128.5 15.3247 128.603 15.418C128.706 15.502 128.846 15.544 129.023 15.544C129.098 15.544 129.2 15.5253 129.331 15.488C129.443 15.4413 129.55 15.418 129.653 15.418Z" fill="#EC1C24"/>
</svg>
