<svg width="157" height="101" viewBox="0 0 157 101" fill="none" xmlns="http://www.w3.org/2000/svg">
<path fill-rule="evenodd" clip-rule="evenodd" d="M128.376 101C144.138 101 156.952 88.1698 156.952 72.494C156.952 56.8183 144.09 43.9883 128.376 43.9883C112.613 43.9883 99.7993 56.8183 99.7993 72.494C99.7993 88.1698 112.661 101 128.376 101Z" fill="#EC1C24"/>
<path d="M140 60.5707C140 60.2568 139.751 60 139.446 60L134.879 60.0214L128 68.4756L121.128 60.0285L116.554 60.0071C116.249 60.0071 116 60.2568 116 60.5779C116 60.7134 116.048 60.8419 116.131 60.9489L125.135 72.0071L116.131 83.0583C116.048 83.1628 116.001 83.2937 116 83.4293C116 83.7432 116.249 84 116.554 84L121.128 83.9786L128 75.5244L134.872 83.9715L139.439 83.9929C139.744 83.9929 139.993 83.7432 139.993 83.4221C139.993 83.2866 139.945 83.1581 139.862 83.0511L130.872 72L139.875 60.9417C139.958 60.8419 140 60.7063 140 60.5707Z" fill="white"/>
<path fill-rule="evenodd" clip-rule="evenodd" d="M88.5331 0C111.21 0 130.406 14.8558 136.837 35.3548C137.176 36.3677 136.595 37.4771 135.58 37.7665C134.564 38.1041 133.452 37.5253 133.162 36.5124L133.114 36.3677C127.118 17.5086 109.421 3.85864 88.5331 3.85864C62.7129 3.85864 41.7764 24.7436 41.7764 50.5C41.7764 76.2564 62.7129 97.1414 88.5331 97.1414H99.1222C100.186 97.1414 101.056 98.0096 101.056 99.0707C101.056 100.132 100.186 101 99.1222 101H88.5331C60.5854 101 37.9082 78.3787 37.9082 50.5C37.9082 22.6213 60.5854 0 88.5331 0Z" fill="#C8C8C8"/>
<path fill-rule="evenodd" clip-rule="evenodd" d="M33.895 32.123C34.5719 32.123 35.2005 32.123 35.8774 32.1713C35.4422 33.4253 35.0554 34.6794 34.717 35.9817C34.4752 35.9817 34.1851 35.9817 33.9433 35.9817C17.3101 35.9335 3.86819 49.3905 3.86819 65.9344C3.86819 82.4784 17.3101 95.8871 33.895 95.8871H48.9809C50.0447 95.8871 50.915 96.7553 50.915 97.8165C50.915 98.8776 50.0447 99.7458 48.9809 99.7458H33.895C15.1826 99.7458 0 84.6006 0 65.9344C0 47.2682 15.1826 32.123 33.895 32.123Z" fill="#C8C8C8"/>
<path fill-rule="evenodd" clip-rule="evenodd" d="M42.9367 14.084C33.1212 14.084 24.7079 20.306 21.5166 28.988C25.4331 27.6857 29.5914 26.9622 33.8948 26.9622C35.2487 26.9622 36.5542 27.0104 37.908 27.1551C40.0839 22.4765 42.8883 18.1356 46.2246 14.2769C45.1125 14.1322 44.0488 14.084 42.9367 14.084Z" fill="#C8C8C8"/>
</svg>
