<svg width="51" height="48" viewBox="0 0 51 48" fill="none" xmlns="http://www.w3.org/2000/svg">
<g clip-path="url(#clip0)">
<path fill-rule="evenodd" clip-rule="evenodd" d="M47.8125 3.16818H19.125C19.125 1.42568 17.6906 0 15.9375 0H3.1875C1.43437 0 0 1.42568 0 3.16818V6.33637V11.0886V12.6727C0 14.4152 1.43437 15.8409 3.1875 15.8409H47.8125C49.5656 15.8409 51 14.4152 51 12.6727V6.33637C51 4.59386 49.5656 3.16818 47.8125 3.16818Z" fill="#0095DA"/>
<path d="M44.625 6.33636H6.375C4.62187 6.33636 3.1875 7.76204 3.1875 9.50454V12.6727C3.1875 14.4152 4.62187 15.8409 6.375 15.8409H44.625C46.3781 15.8409 47.8125 14.4152 47.8125 12.6727V9.50454C47.8125 7.76204 46.3781 6.33636 44.625 6.33636Z" fill="white"/>
<path d="M47.8125 9.50455H3.1875C1.43437 9.50455 0 10.9302 0 12.6727V44.3546C0 46.0971 1.43437 47.5227 3.1875 47.5227H47.8125C49.5656 47.5227 51 46.0971 51 44.3546V12.6727C51 10.9302 49.5656 9.50455 47.8125 9.50455Z" fill="#8ED8F8"/>
</g>
<defs>
<clipPath id="clip0">
<rect width="51" height="47.5227" fill="white"/>
</clipPath>
</defs>
</svg>
