<svg xmlns="http://www.w3.org/2000/svg" fill="none" viewBox="0 0 24 24">
    <path fill="#C8C8C8" d="M20.813 18.563H4.688V3.938c0-.104-.085-.188-.188-.188H3.187c-.103 0-.187.084-.187.188v16.125c0 .103.084.187.188.187h17.625c.103 0 .187-.084.187-.188V18.75c0-.103-.084-.188-.188-.188zM6.75 16.688h1.313c.103 0 .187-.085.187-.188v-3.375c0-.103-.084-.188-.188-.188H6.75c-.103 0-.188.085-.188.188V16.5c0 .103.085.188.188.188zm3.563 0h1.312c.103 0 .188-.085.188-.188V9c0-.103-.085-.188-.188-.188h-1.313c-.103 0-.187.085-.187.188v7.5c0 .103.084.188.188.188zm3.562 0h1.313c.103 0 .187-.085.187-.188v-5.672c0-.103-.084-.187-.188-.187h-1.312c-.103 0-.188.084-.188.187V16.5c0 .103.085.188.188.188zm3.563 0h1.312c.103 0 .188-.085.188-.188V7.125c0-.103-.085-.188-.188-.188h-1.313c-.103 0-.187.085-.187.188V16.5c0 .103.084.188.188.188z"/>
</svg>
