<svg width="16" height="20" viewBox="0 0 16 20" fill="none" xmlns="http://www.w3.org/2000/svg">
<path d="M14.2649 2.60764C12.0571 0.399829 8.46174 0.399829 6.25627 2.60764L0.139084 8.72014C0.0992406 8.75998 0.0781467 8.81389 0.0781467 8.87014C0.0781467 8.92639 0.0992406 8.9803 0.139084 9.02014L1.00393 9.88498C1.04346 9.92434 1.09697 9.94644 1.15276 9.94644C1.20854 9.94644 1.26205 9.92434 1.30158 9.88498L7.41877 3.77249C8.17815 3.01311 9.1883 2.59592 10.2617 2.59592C11.3352 2.59592 12.3453 3.01311 13.1024 3.77249C13.8617 4.53186 14.2789 5.54202 14.2789 6.61311C14.2789 7.68655 13.8617 8.69436 13.1024 9.45374L6.86799 15.6858L5.85783 16.6959C4.9133 17.6405 3.37815 17.6405 2.43362 16.6959C1.97658 16.2389 1.7258 15.6319 1.7258 14.985C1.7258 14.3381 1.97658 13.7311 2.43362 13.274L8.61877 7.09124C8.7758 6.93655 8.98205 6.84983 9.20236 6.84983H9.20471C9.42502 6.84983 9.62893 6.93655 9.78362 7.09124C9.94065 7.24827 10.025 7.45452 10.025 7.67483C10.025 7.8928 9.9383 8.09905 9.78362 8.25374L4.72815 13.3045C4.6883 13.3444 4.66721 13.3983 4.66721 13.4545C4.66721 13.5108 4.6883 13.5647 4.72815 13.6045L5.59299 14.4694C5.63252 14.5087 5.68603 14.5308 5.74182 14.5308C5.7976 14.5308 5.85112 14.5087 5.89065 14.4694L10.9438 9.41623C11.4102 8.94983 11.6656 8.33108 11.6656 7.67249C11.6656 7.01389 11.4078 6.3928 10.9438 5.92873C9.98049 4.96545 8.41487 4.9678 7.45158 5.92873L6.85158 6.53108L1.26877 12.1115C0.889859 12.4882 0.589503 12.9364 0.38512 13.4301C0.180737 13.9237 0.0763961 14.453 0.0781467 14.9873C0.0781467 16.0725 0.502365 17.092 1.26877 17.8584C2.0633 18.6506 3.10393 19.0467 4.14455 19.0467C5.18518 19.0467 6.2258 18.6506 7.01799 17.8584L14.2649 10.6162C15.3313 9.54748 15.9219 8.12483 15.9219 6.61311C15.9242 5.09905 15.3336 3.67639 14.2649 2.60764Z" fill="#C8C8C8"/>
</svg>
