<svg xmlns="http://www.w3.org/2000/svg" fill="none" viewBox="0 0 24 24">
    <path fill="#C8C8C8" d="M3.656 6.845h1.648c.112 0 .218-.049.288-.135.164-.2.34-.392.525-.575.757-.758 1.654-1.362 2.641-1.779 1.023-.432 2.122-.653 3.232-.651 1.123 0 2.21.22 3.232.651.987.417 1.885 1.021 2.642 1.78.758.755 1.363 1.65 1.781 2.636.434 1.022.652 2.107.652 3.23 0 1.122-.22 2.207-.652 3.23-.417.986-1.017 1.874-1.781 2.636s-1.653 1.362-2.642 1.779c-1.021.431-2.109.652-3.232.652-1.122 0-2.21-.218-3.232-.652-.989-.417-1.877-1.017-2.641-1.779-.185-.185-.359-.377-.525-.574-.07-.087-.178-.136-.288-.136H3.656c-.148 0-.24.164-.157.288 1.798 2.794 4.943 4.643 8.517 4.634 5.616-.014 10.118-4.573 10.062-10.181-.056-5.52-4.552-9.975-10.088-9.975-3.564 0-6.696 1.846-8.491 4.633-.08.124.01.288.157.288zM1.572 12.15l3.326 2.625c.124.099.305.01.305-.147v-1.782h7.36c.102 0 .187-.084.187-.187v-1.313c0-.103-.085-.187-.188-.187h-7.36V9.377c0-.157-.182-.246-.304-.148l-3.326 2.625c-.022.018-.04.04-.053.066-.012.025-.019.053-.019.082 0 .028.007.056.02.082.012.025.03.048.052.065z"/>
</svg>
