<svg xmlns="http://www.w3.org/2000/svg" fill="none" viewBox="0 0 24 24">
    <path fill="#0095DA" d="M20.25 12.14h-8.39V3.75c0-.103-.085-.188-.188-.188h-.61c-1.23-.002-2.45.24-3.588.71-1.137.472-2.17 1.163-3.04 2.035-.856.853-1.538 1.865-2.008 2.979-.49 1.155-.74 2.397-.739 3.651-.002 1.232.24 2.45.71 3.588.472 1.138 1.163 2.171 2.035 3.04.86.86 1.863 1.538 2.979 2.009 1.155.49 2.397.74 3.651.738 1.231.002 2.45-.24 3.588-.71 1.138-.471 2.171-1.163 3.04-2.034.86-.86 1.538-1.864 2.009-2.98.49-1.154.74-2.396.738-3.65v-.61c0-.103-.084-.188-.187-.188zm-3.71 6.324c-.726.72-1.587 1.29-2.533 1.677-.947.387-1.96.583-2.982.578-2.065-.01-4.006-.818-5.466-2.279-1.47-1.47-2.278-3.424-2.278-5.503s.809-4.033 2.278-5.503c1.28-1.28 2.927-2.06 4.706-2.238v8.538h8.539c-.18 1.788-.968 3.446-2.264 4.73zm5.772-7.627l-.06-.66c-.2-2.16-1.159-4.196-2.7-5.733-1.544-1.54-3.576-2.494-5.747-2.696l-.664-.06c-.11-.01-.204.074-.204.184v9.003c0 .103.085.187.188.187l9-.023c.11 0 .197-.094.187-.202zm-7.786-1.364V3.46c1.477.31 2.832 1.04 3.9 2.105 1.071 1.069 1.805 2.428 2.11 3.893l-6.01.016z"/>
</svg>
