<svg className="" viewBox="0 0 24 25"  xmlns="http://www.w3.org/2000/svg" >
    <path d="M12 1.527c-5.798 0-10.5 4.702-10.5 10.5 0 5.799 4.702 10.5 10.5 10.5s10.5-4.701 10.5-10.5c0-5.798-4.702-10.5-10.5-10.5zm0 19.219c-4.814 0-8.719-3.905-8.719-8.719S7.186 3.308 12 3.308s8.719 3.905 8.719 8.719-3.905 8.719-8.719 8.719z"/>
    <path d="M14.616 7.45c-.704-.617-1.632-.954-2.616-.954-.984 0-1.912.34-2.616.954-.73.64-1.134 1.5-1.134 2.42v.179c0 .103.084.187.188.187h1.124c.104 0 .188-.084.188-.187V9.87c0-1.034 1.01-1.875 2.25-1.875s2.25.841 2.25 1.875c0 .729-.516 1.397-1.315 1.704-.497.19-.919.522-1.22.958-.308.446-.467.98-.467 1.521v.504c0 .103.084.188.187.188h1.125c.103 0 .188-.085.188-.188v-.532c0-.227.07-.45.2-.636.129-.188.312-.332.524-.414 1.383-.532 2.276-1.75 2.276-3.105.002-.921-.401-1.781-1.132-2.421zm-3.553 9.733c0 .249.098.487.274.663.176.176.414.275.663.275.249 0 .487-.099.663-.275.176-.176.274-.414.274-.663 0-.248-.098-.487-.274-.663-.176-.175-.414-.274-.663-.274-.249 0-.487.099-.663.274-.176.176-.274.415-.274.663z"/>
</svg>
