<svg className="" viewBox="0 0 24 25"  xmlns="http://www.w3.org/2000/svg" >
    <path d="M20.25 17.277c0-2.616-1.533-4.875-3.75-5.927V7.464c0-.354-.124-.696-.354-.966l-3.572-4.235c-.15-.178-.363-.267-.574-.267-.21 0-.424.089-.574.267L7.854 6.498c-.228.27-.354.612-.354.966v3.886c-2.217 1.052-3.75 3.311-3.75 5.927h3.668c-.054.169-.082.352-.082.558 0 .518.178 1.024.502 1.425.263.328.613.576 1.01.717.541 1.266 1.771 2.081 3.152 2.081.682 0 1.343-.201 1.908-.581.553-.37.982-.888 1.242-1.5.396-.14.746-.388 1.01-.715.324-.404.5-.907.502-1.425 0-.197-.026-.384-.073-.558h3.661v-.002zm-2.384-2.686c.22.342.399.71.528 1.092h-1.988v-2.561c.585.381 1.083.882 1.46 1.47zM9.094 11.35V7.499L12 4.054l2.906 3.445v8.184H9.094V11.35zm-3.488 4.333c.13-.382.307-.75.528-1.092.382-.59.878-1.09 1.46-1.47v2.562H5.606zm9.115 2.724c-.122.07-.262.098-.4.08l-.458-.057-.065.455c-.127.888-.9 1.558-1.798 1.558s-1.671-.67-1.798-1.558l-.065-.457-.457.058c-.14.017-.28-.012-.401-.082-.204-.117-.33-.335-.33-.572 0-.248.138-.454.342-.557h5.42c.207.105.343.311.343.558-.002.239-.129.459-.333.574zm-3.846-9.005c0 .298.118.585.33.796.21.21.497.329.795.329.298 0 .585-.118.796-.33.21-.21.329-.497.329-.795 0-.298-.118-.584-.33-.795-.21-.211-.497-.33-.795-.33-.298 0-.585.119-.796.33-.21.21-.329.497-.329.795z"/>
</svg>
