<svg xmlns="http://www.w3.org/2000/svg" fill="none" viewBox="0 0 24 24">
    <path fill="#C8C8C8" d="M21.675 14.665l-1.535-1.312c.073-.446.11-.9.11-1.355 0-.455-.037-.91-.11-1.355l1.535-1.312c.116-.1.199-.231.238-.379.039-.147.032-.303-.02-.446l-.021-.061c-.423-1.181-1.055-2.276-1.868-3.232l-.042-.05c-.099-.115-.23-.199-.377-.238-.147-.04-.302-.034-.446.016l-1.905.677c-.704-.576-1.489-1.031-2.337-1.35l-.368-1.992c-.028-.15-.1-.288-.209-.395-.107-.108-.246-.18-.396-.207l-.063-.012c-1.221-.22-2.506-.22-3.727 0l-.063.012c-.15.027-.288.1-.396.207-.108.107-.18.245-.209.395l-.37 2.002c-.842.318-1.625.773-2.32 1.345l-1.92-.682c-.143-.05-.299-.057-.446-.017-.147.04-.278.123-.376.24l-.043.049c-.811.956-1.444 2.051-1.868 3.232l-.02.06c-.106.294-.02.622.217.826l1.554 1.326c-.072.441-.108.891-.108 1.339 0 .45.036.9.108 1.338L2.32 14.66c-.115.099-.198.23-.237.378-.04.147-.032.303.02.447l.02.06c.425 1.182 1.053 2.271 1.868 3.232l.043.05c.098.116.23.199.376.239.147.04.303.034.446-.017l1.92-.682c.698.575 1.479 1.03 2.32 1.346l.37 2.001c.028.15.1.288.209.396.108.107.246.18.396.206l.063.012c1.233.222 2.495.222 3.727 0l.063-.012c.15-.027.289-.099.396-.206.108-.108.181-.246.209-.396l.368-1.992c.848-.318 1.638-.774 2.337-1.35l1.905.677c.144.051.3.057.446.017.147-.04.278-.123.377-.24l.042-.049c.816-.963 1.444-2.05 1.868-3.232l.021-.06c.105-.289.019-.617-.218-.82zm-3.2-3.745c.06.354.09.717.09 1.08 0 .364-.03.727-.09 1.08l-.154.94 1.75 1.498c-.265.612-.6 1.19-.998 1.725l-2.175-.77-.735.604c-.56.46-1.184.82-1.859 1.073l-.893.335-.42 2.274c-.662.075-1.33.075-1.992 0l-.42-2.278-.885-.34c-.668-.253-1.29-.614-1.845-1.071l-.736-.607-2.189.778c-.398-.537-.731-1.116-.998-1.725l1.77-1.512-.153-.937c-.056-.35-.087-.71-.087-1.067 0-.358.028-.717.087-1.066l.152-.938-1.77-1.511c.266-.612.6-1.189 1-1.725l2.188.778.736-.607c.556-.457 1.177-.818 1.845-1.071l.888-.335.42-2.279c.658-.075 1.33-.075 1.992 0l.42 2.274.892.335c.673.253 1.299.614 1.859 1.073l.736.605 2.175-.771c.398.537.731 1.116.998 1.725l-1.75 1.498.152.935zM12 7.64c-2.278 0-4.125 1.848-4.125 4.126 0 2.278 1.847 4.125 4.125 4.125s4.125-1.847 4.125-4.125S14.278 7.64 12 7.64zm1.856 5.982c-.243.244-.533.438-.851.57-.319.132-.66.2-1.005.199-.7 0-1.36-.274-1.856-.769-.244-.243-.438-.533-.57-.851-.132-.319-.2-.66-.199-1.005 0-.7.274-1.36.769-1.856.497-.497 1.155-.77 1.856-.77.7 0 1.36.273 1.856.77.245.243.438.533.57.851.132.319.2.66.2 1.005 0 .7-.275 1.36-.77 1.856z"/>
</svg>
