<svg xmlns="http://www.w3.org/2000/svg" width="24" height="24" fill="none" viewBox="0 0 24 24">
    <path fill="#C8C8C8" d="M20.625 2.625c-.09 0-.18.016-.272.054L6.843 8.107H3c-.206 0-.375.173-.375.39v7.007c0 .216.169.389.375.389h2.384c-.087.272-.134.56-.134.853 0 1.545 1.26 2.8 2.813 2.8 1.298 0 2.393-.88 2.716-2.071l9.576 3.848c.092.036.183.054.272.054.396 0 .75-.332.75-.778V3.403c-.002-.445-.354-.778-.752-.778zM8.062 17.866c-.62 0-1.124-.501-1.124-1.12 0-.262.09-.513.257-.712l1.99.799c-.047.576-.532 1.033-1.123 1.033zm11.626 1.37L7.472 14.326l-.302-.121H4.313V9.795H7.17l.302-.122 12.216-4.908v14.47z"/>
</svg>
