<svg width="157" height="101" viewBox="0 0 157 101" fill="none" xmlns="http://www.w3.org/2000/svg">
<path fill-rule="evenodd" clip-rule="evenodd" d="M128.376 101C144.138 101 156.952 88.1698 156.952 72.494C156.952 56.8183 144.09 43.9883 128.376 43.9883C112.613 43.9883 99.7993 56.8183 99.7993 72.494C99.7993 88.1698 112.661 101 128.376 101Z" fill="#6FCF97"/>
<path d="M117.578 71.1373H117.578H115.265C114.91 71.1373 114.732 71.5499 114.938 71.8191L114.938 71.8191L124 83.6759L124 83.676C124.484 84.3083 125.416 84.3076 125.902 83.6764L125.903 83.6759L142.062 62.5295C142.062 62.5293 142.062 62.5291 142.062 62.5289C142.27 62.2609 142.087 61.85 141.735 61.85H139.422C139.05 61.85 138.699 62.0261 138.472 62.3261C138.472 62.3262 138.472 62.3264 138.472 62.3265L124.95 80.0166L118.528 71.6132C118.415 71.4655 118.271 71.3458 118.107 71.2632C117.942 71.1806 117.762 71.1375 117.578 71.1373Z" fill="white" stroke="white" stroke-width="0.3"/>
<path fill-rule="evenodd" clip-rule="evenodd" d="M88.5331 0C111.21 0 130.406 14.8558 136.837 35.3548C137.176 36.3677 136.595 37.4771 135.58 37.7665C134.564 38.1041 133.452 37.5253 133.162 36.5124L133.114 36.3677C127.118 17.5086 109.421 3.85864 88.5331 3.85864C62.7129 3.85864 41.7764 24.7436 41.7764 50.5C41.7764 76.2564 62.7129 97.1414 88.5331 97.1414H99.1222C100.186 97.1414 101.056 98.0096 101.056 99.0707C101.056 100.132 100.186 101 99.1222 101H88.5331C60.5854 101 37.9082 78.3787 37.9082 50.5C37.9082 22.6213 60.5854 0 88.5331 0Z" fill="#C8C8C8"/>
<path fill-rule="evenodd" clip-rule="evenodd" d="M33.895 32.123C34.5719 32.123 35.2005 32.123 35.8774 32.1713C35.4422 33.4253 35.0554 34.6794 34.717 35.9817C34.4752 35.9817 34.1851 35.9817 33.9433 35.9817C17.3101 35.9335 3.86819 49.3905 3.86819 65.9344C3.86819 82.4784 17.3101 95.8871 33.895 95.8871H48.9809C50.0447 95.8871 50.915 96.7553 50.915 97.8165C50.915 98.8776 50.0447 99.7458 48.9809 99.7458H33.895C15.1826 99.7458 0 84.6006 0 65.9344C0 47.2682 15.1826 32.123 33.895 32.123Z" fill="#C8C8C8"/>
<path fill-rule="evenodd" clip-rule="evenodd" d="M42.9367 14.084C33.1212 14.084 24.7079 20.306 21.5166 28.988C25.4331 27.6857 29.5914 26.9622 33.8948 26.9622C35.2487 26.9622 36.5542 27.0104 37.908 27.1551C40.0839 22.4765 42.8883 18.1356 46.2246 14.2769C45.1125 14.1322 44.0488 14.084 42.9367 14.084Z" fill="#C8C8C8"/>
</svg>
