<svg width="24" height="24" viewBox="0 0 24 24" fill="none" xmlns="http://www.w3.org/2000/svg">
<path d="M19.8724 13.875H3.56227C3.45914 13.875 3.37477 13.9594 3.37477 14.0625V15.4688C3.37477 15.5719 3.45914 15.6562 3.56227 15.6562H17.7466L14.3646 19.9453C14.2685 20.0672 14.3552 20.25 14.5123 20.25H16.2115C16.3263 20.25 16.4341 20.1984 16.5068 20.107L20.463 15.0891C20.8498 14.5969 20.5005 13.875 19.8724 13.875ZM20.4373 8.34375H6.25289L9.63492 4.05469C9.73102 3.93281 9.6443 3.75 9.48727 3.75H7.78805C7.6732 3.75 7.56539 3.80156 7.49274 3.89297L3.53649 8.91094C3.14977 9.40313 3.49899 10.125 4.12477 10.125H20.4373C20.5404 10.125 20.6248 10.0406 20.6248 9.9375V8.53125C20.6248 8.42812 20.5404 8.34375 20.4373 8.34375Z" fill="#C8C8C8"/>
</svg>
