<svg xmlns="http://www.w3.org/2000/svg" fill="none" viewBox="0 0 24 24">
    <path fill="#fff" d="M12.148 10.759c-.018-.023-.04-.04-.066-.053-.026-.013-.054-.02-.082-.02-.028 0-.057.007-.082.02-.026.012-.048.03-.066.053l-2.625 3.32c-.021.028-.035.061-.038.096-.004.035.002.07.017.102.016.032.04.058.07.077.03.018.064.028.099.028h1.732v5.681c0 .104.084.188.188.188H12.7c.103 0 .187-.085.187-.188v-5.679h1.737c.157 0 .244-.18.148-.302l-2.625-3.323z"/>
    <path fill="#fff" d="M19.017 8.595C17.944 5.763 15.21 3.75 12.005 3.75c-3.204 0-5.94 2.01-7.013 4.842C2.984 9.12 1.5 10.95 1.5 13.125c0 2.59 2.098 4.688 4.685 4.688h.94c.103 0 .188-.085.188-.188v-1.406c0-.103-.085-.188-.188-.188h-.94c-.79 0-1.533-.314-2.086-.883-.55-.567-.844-1.332-.818-2.124.021-.618.232-1.2.614-1.69.392-.499.94-.862 1.55-1.024l.888-.232.326-.858c.201-.534.482-1.033.836-1.486.35-.448.764-.842 1.228-1.17.964-.676 2.098-1.035 3.282-1.035 1.183 0 2.318.359 3.28 1.036.467.328.88.722 1.23 1.17.353.452.634.953.836 1.485l.323.856.886.234c1.27.342 2.159 1.498 2.159 2.815 0 .776-.303 1.507-.851 2.056-.269.27-.589.485-.941.63-.353.147-.73.221-1.112.22h-.94c-.103 0-.188.085-.188.188v1.406c0 .103.085.188.188.188h.94c2.587 0 4.685-2.098 4.685-4.688 0-2.173-1.479-4-3.483-4.53z"/>
</svg>
