<svg width="526" height="104" viewBox="0 0 526 104" fill="none" xmlns="http://www.w3.org/2000/svg">
<rect x="1" y="1" width="524" height="102" rx="7" fill="#EDF6FA" stroke="#8ED8F8" stroke-width="2" stroke-dasharray="5 5"/>
<rect x="297" y="31" width="198" height="42" rx="7" stroke="#0095DA" stroke-width="2"/>
<path d="M357.826 51.792C358.392 52.016 358.85 52.3573 359.202 52.816C359.565 53.2747 359.746 53.8667 359.746 54.592C359.746 55.8613 359.384 56.7467 358.658 57.248C357.933 57.7493 357.069 58 356.066 58H352.082C351.805 58 351.57 57.9093 351.378 57.728C351.197 57.536 351.106 57.3013 351.106 57.024V47.776C351.106 47.4987 351.197 47.2693 351.378 47.088C351.57 46.896 351.805 46.8 352.082 46.8H356.114C358.141 46.8 359.154 47.7493 359.154 49.648C359.154 50.128 359.037 50.5547 358.802 50.928C358.578 51.2907 358.253 51.5787 357.826 51.792ZM357.074 50C357.074 49.5627 356.962 49.2373 356.738 49.024C356.525 48.8 356.221 48.688 355.826 48.688H353.186V51.184H355.874C356.194 51.184 356.472 51.0773 356.706 50.864C356.952 50.6507 357.074 50.3627 357.074 50ZM356.066 56.16C356.568 56.16 356.957 56.0267 357.234 55.76C357.522 55.4933 357.666 55.104 357.666 54.592C357.666 53.9627 357.501 53.552 357.17 53.36C356.84 53.168 356.434 53.072 355.954 53.072H353.186V56.16H356.066ZM365.879 49.28C366.199 49.28 366.465 49.3707 366.679 49.552C366.903 49.7333 367.015 49.9467 367.015 50.192C367.015 50.5227 366.929 50.7733 366.759 50.944C366.588 51.104 366.385 51.184 366.151 51.184C365.991 51.184 365.809 51.1467 365.607 51.072C365.575 51.0613 365.5 51.04 365.383 51.008C365.276 50.976 365.159 50.96 365.031 50.96C364.753 50.96 364.487 51.0453 364.231 51.216C363.975 51.3867 363.761 51.648 363.591 52C363.431 52.3413 363.351 52.752 363.351 53.232V57.024C363.351 57.3013 363.26 57.536 363.079 57.728C362.897 57.9093 362.668 58 362.391 58C362.113 58 361.884 57.9093 361.703 57.728C361.521 57.536 361.431 57.3013 361.431 57.024V50.416C361.431 50.1387 361.521 49.9093 361.703 49.728C361.884 49.536 362.113 49.44 362.391 49.44C362.668 49.44 362.897 49.536 363.079 49.728C363.26 49.9093 363.351 50.1387 363.351 50.416V50.624C363.596 50.1867 363.948 49.856 364.407 49.632C364.865 49.3973 365.356 49.28 365.879 49.28ZM376.233 53.728C376.233 54.5813 376.041 55.3493 375.657 56.032C375.273 56.704 374.745 57.2267 374.073 57.6C373.411 57.9733 372.681 58.16 371.881 58.16C371.07 58.16 370.334 57.9733 369.673 57.6C369.011 57.2267 368.489 56.704 368.105 56.032C367.721 55.3493 367.529 54.5813 367.529 53.728C367.529 52.8747 367.721 52.112 368.105 51.44C368.489 50.7573 369.011 50.2293 369.673 49.856C370.334 49.472 371.07 49.28 371.881 49.28C372.681 49.28 373.411 49.472 374.073 49.856C374.745 50.2293 375.273 50.7573 375.657 51.44C376.041 52.112 376.233 52.8747 376.233 53.728ZM374.313 53.728C374.313 53.2053 374.201 52.7413 373.977 52.336C373.763 51.92 373.47 51.6 373.097 51.376C372.734 51.152 372.329 51.04 371.881 51.04C371.433 51.04 371.022 51.152 370.649 51.376C370.286 51.6 369.993 51.92 369.769 52.336C369.555 52.7413 369.449 53.2053 369.449 53.728C369.449 54.2507 369.555 54.7147 369.769 55.12C369.993 55.5253 370.286 55.84 370.649 56.064C371.022 56.288 371.433 56.4 371.881 56.4C372.329 56.4 372.734 56.288 373.097 56.064C373.47 55.84 373.763 55.5253 373.977 55.12C374.201 54.7147 374.313 54.2507 374.313 53.728ZM387.693 49.44C387.949 49.44 388.162 49.536 388.333 49.728C388.514 49.9093 388.605 50.144 388.605 50.432C388.605 50.528 388.584 50.6507 388.541 50.8L386.093 57.392C386.029 57.584 385.912 57.7387 385.741 57.856C385.581 57.9627 385.405 58.016 385.213 58.016L385.085 58C384.722 57.9787 384.45 57.776 384.269 57.392L382.909 53.456L381.613 57.392C381.432 57.776 381.16 57.9787 380.797 58L380.669 58.016C380.477 58.016 380.296 57.9627 380.125 57.856C379.965 57.7387 379.853 57.584 379.789 57.392L377.341 50.8C377.298 50.6827 377.277 50.56 377.277 50.432C377.277 50.1653 377.362 49.936 377.533 49.744C377.714 49.5413 377.949 49.44 378.237 49.44C378.45 49.44 378.632 49.4933 378.781 49.6C378.941 49.696 379.053 49.8453 379.117 50.048L380.845 54.736L382.109 51.312C382.28 50.9173 382.573 50.72 382.989 50.72C383.213 50.72 383.384 50.768 383.501 50.864C383.629 50.96 383.736 51.1093 383.821 51.312L385.053 54.656L386.765 50.048C386.829 49.8453 386.941 49.696 387.101 49.6C387.261 49.4933 387.458 49.44 387.693 49.44ZM389.544 56.672C389.448 56.544 389.4 56.384 389.4 56.192C389.4 55.9147 389.539 55.68 389.816 55.488C389.965 55.392 390.12 55.344 390.28 55.344C390.504 55.344 390.717 55.4453 390.92 55.648C391.24 55.9787 391.571 56.224 391.912 56.384C392.264 56.544 392.685 56.624 393.176 56.624C394.008 56.592 394.424 56.2773 394.424 55.68C394.424 55.3707 394.28 55.136 393.992 54.976C393.715 54.816 393.277 54.656 392.68 54.496C392.061 54.3253 391.555 54.1547 391.16 53.984C390.776 53.8133 390.44 53.5573 390.152 53.216C389.875 52.864 389.736 52.3947 389.736 51.808C389.736 51.296 389.88 50.8533 390.168 50.48C390.467 50.096 390.851 49.8027 391.32 49.6C391.8 49.3867 392.307 49.28 392.84 49.28C393.384 49.28 393.928 49.3813 394.472 49.584C395.016 49.7867 395.443 50.0853 395.752 50.48C395.891 50.6507 395.96 50.8427 395.96 51.056C395.96 51.3013 395.859 51.504 395.656 51.664C395.507 51.7813 395.336 51.84 395.144 51.84C394.909 51.84 394.717 51.7653 394.568 51.616C394.376 51.3813 394.125 51.1947 393.816 51.056C393.517 50.9173 393.176 50.848 392.792 50.848C391.981 50.848 391.576 51.1413 391.576 51.728C391.576 51.9627 391.651 52.1547 391.8 52.304C391.949 52.4427 392.136 52.5547 392.36 52.64C392.595 52.7147 392.92 52.8107 393.336 52.928C393.912 53.088 394.392 53.2533 394.776 53.424C395.16 53.5947 395.485 53.856 395.752 54.208C396.019 54.56 396.152 55.024 396.152 55.6C396.152 56.1227 395.997 56.5813 395.688 56.976C395.379 57.36 394.979 57.6533 394.488 57.856C394.008 58.0587 393.512 58.16 393 58.16C392.296 58.16 391.64 58.0427 391.032 57.808C390.424 57.5733 389.928 57.1947 389.544 56.672ZM405.439 53.52C405.428 53.776 405.327 53.984 405.135 54.144C404.943 54.304 404.719 54.384 404.463 54.384H399.183C399.311 55.0133 399.604 55.5093 400.063 55.872C400.521 56.224 401.039 56.4 401.615 56.4C402.052 56.4 402.393 56.3627 402.639 56.288C402.884 56.2027 403.076 56.1173 403.215 56.032C403.364 55.936 403.465 55.872 403.519 55.84C403.711 55.744 403.892 55.696 404.063 55.696C404.287 55.696 404.479 55.776 404.639 55.936C404.799 56.096 404.879 56.2827 404.879 56.496C404.879 56.784 404.729 57.0453 404.431 57.28C404.132 57.5253 403.732 57.7333 403.231 57.904C402.729 58.0747 402.223 58.16 401.711 58.16C400.815 58.16 400.031 57.9733 399.359 57.6C398.697 57.2267 398.185 56.7147 397.823 56.064C397.46 55.4027 397.279 54.6613 397.279 53.84C397.279 52.9227 397.471 52.1173 397.855 51.424C398.239 50.7307 398.745 50.2027 399.375 49.84C400.004 49.4667 400.676 49.28 401.391 49.28C402.095 49.28 402.756 49.472 403.375 49.856C404.004 50.24 404.505 50.7573 404.879 51.408C405.252 52.0587 405.439 52.7627 405.439 53.52ZM401.391 51.04C400.153 51.04 399.423 51.6213 399.199 52.784H403.391V52.672C403.348 52.224 403.129 51.84 402.735 51.52C402.34 51.2 401.892 51.04 401.391 51.04ZM415.636 47.856C415.274 47.856 415.018 47.9627 414.868 48.176C414.719 48.3787 414.644 48.6027 414.644 48.848V49.6H416.1C416.356 49.6 416.57 49.6853 416.74 49.856C416.911 50.016 416.996 50.224 416.996 50.48C416.996 50.736 416.911 50.9493 416.74 51.12C416.57 51.28 416.356 51.36 416.1 51.36H414.644V57.024C414.644 57.3013 414.554 57.536 414.372 57.728C414.191 57.9093 413.962 58 413.684 58C413.407 58 413.178 57.9093 412.996 57.728C412.815 57.536 412.724 57.3013 412.724 57.024V51.36H411.86C411.604 51.36 411.391 51.28 411.22 51.12C411.05 50.9493 410.964 50.736 410.964 50.48C410.964 50.224 411.05 50.016 411.22 49.856C411.391 49.6853 411.604 49.6 411.86 49.6H412.724V48.864C412.724 48.064 412.996 47.4133 413.54 46.912C414.095 46.4107 414.89 46.16 415.924 46.16C416.319 46.16 416.66 46.24 416.948 46.4C417.247 46.56 417.396 46.8053 417.396 47.136C417.396 47.392 417.322 47.6 417.172 47.76C417.023 47.92 416.842 48 416.628 48C416.575 48 416.516 47.9947 416.452 47.984C416.399 47.9733 416.34 47.9627 416.276 47.952C416.02 47.888 415.807 47.856 415.636 47.856ZM420.004 57.024C420.004 57.3013 419.914 57.536 419.732 57.728C419.551 57.9093 419.322 58 419.044 58C418.767 58 418.538 57.9093 418.356 57.728C418.175 57.536 418.084 57.3013 418.084 57.024V50.416C418.084 50.1387 418.175 49.9093 418.356 49.728C418.538 49.536 418.767 49.44 419.044 49.44C419.322 49.44 419.551 49.536 419.732 49.728C419.914 49.9093 420.004 50.1387 420.004 50.416V57.024ZM419.028 48.4C418.666 48.4 418.41 48.3413 418.26 48.224C418.111 48.1067 418.036 47.8987 418.036 47.6V47.296C418.036 46.9973 418.116 46.7893 418.276 46.672C418.436 46.5547 418.692 46.496 419.044 46.496C419.418 46.496 419.679 46.5547 419.828 46.672C419.978 46.7893 420.052 46.9973 420.052 47.296V47.6C420.052 47.9093 419.972 48.1227 419.812 48.24C419.663 48.3467 419.402 48.4 419.028 48.4ZM424.058 57.024C424.058 57.3013 423.962 57.536 423.77 57.728C423.588 57.9093 423.359 58 423.082 58C422.815 58 422.591 57.9093 422.41 57.728C422.228 57.536 422.138 57.3013 422.138 57.024V47.136C422.138 46.8587 422.228 46.6293 422.41 46.448C422.602 46.256 422.836 46.16 423.114 46.16C423.38 46.16 423.604 46.256 423.786 46.448C423.967 46.6293 424.058 46.8587 424.058 47.136V57.024ZM433.814 53.52C433.803 53.776 433.702 53.984 433.51 54.144C433.318 54.304 433.094 54.384 432.838 54.384H427.558C427.686 55.0133 427.979 55.5093 428.438 55.872C428.896 56.224 429.414 56.4 429.99 56.4C430.427 56.4 430.768 56.3627 431.014 56.288C431.259 56.2027 431.451 56.1173 431.59 56.032C431.739 55.936 431.84 55.872 431.894 55.84C432.086 55.744 432.267 55.696 432.438 55.696C432.662 55.696 432.854 55.776 433.014 55.936C433.174 56.096 433.254 56.2827 433.254 56.496C433.254 56.784 433.104 57.0453 432.806 57.28C432.507 57.5253 432.107 57.7333 431.606 57.904C431.104 58.0747 430.598 58.16 430.086 58.16C429.19 58.16 428.406 57.9733 427.734 57.6C427.072 57.2267 426.56 56.7147 426.198 56.064C425.835 55.4027 425.654 54.6613 425.654 53.84C425.654 52.9227 425.846 52.1173 426.23 51.424C426.614 50.7307 427.12 50.2027 427.75 49.84C428.379 49.4667 429.051 49.28 429.766 49.28C430.47 49.28 431.131 49.472 431.75 49.856C432.379 50.24 432.88 50.7573 433.254 51.408C433.627 52.0587 433.814 52.7627 433.814 53.52ZM429.766 51.04C428.528 51.04 427.798 51.6213 427.574 52.784H431.766V52.672C431.723 52.224 431.504 51.84 431.11 51.52C430.715 51.2 430.267 51.04 429.766 51.04ZM434.919 56.672C434.823 56.544 434.775 56.384 434.775 56.192C434.775 55.9147 434.914 55.68 435.191 55.488C435.34 55.392 435.495 55.344 435.655 55.344C435.879 55.344 436.092 55.4453 436.295 55.648C436.615 55.9787 436.946 56.224 437.287 56.384C437.639 56.544 438.06 56.624 438.551 56.624C439.383 56.592 439.799 56.2773 439.799 55.68C439.799 55.3707 439.655 55.136 439.367 54.976C439.09 54.816 438.652 54.656 438.055 54.496C437.436 54.3253 436.93 54.1547 436.535 53.984C436.151 53.8133 435.815 53.5573 435.527 53.216C435.25 52.864 435.111 52.3947 435.111 51.808C435.111 51.296 435.255 50.8533 435.543 50.48C435.842 50.096 436.226 49.8027 436.695 49.6C437.175 49.3867 437.682 49.28 438.215 49.28C438.759 49.28 439.303 49.3813 439.847 49.584C440.391 49.7867 440.818 50.0853 441.127 50.48C441.266 50.6507 441.335 50.8427 441.335 51.056C441.335 51.3013 441.234 51.504 441.031 51.664C440.882 51.7813 440.711 51.84 440.519 51.84C440.284 51.84 440.092 51.7653 439.943 51.616C439.751 51.3813 439.5 51.1947 439.191 51.056C438.892 50.9173 438.551 50.848 438.167 50.848C437.356 50.848 436.951 51.1413 436.951 51.728C436.951 51.9627 437.026 52.1547 437.175 52.304C437.324 52.4427 437.511 52.5547 437.735 52.64C437.97 52.7147 438.295 52.8107 438.711 52.928C439.287 53.088 439.767 53.2533 440.151 53.424C440.535 53.5947 440.86 53.856 441.127 54.208C441.394 54.56 441.527 55.024 441.527 55.6C441.527 56.1227 441.372 56.5813 441.063 56.976C440.754 57.36 440.354 57.6533 439.863 57.856C439.383 58.0587 438.887 58.16 438.375 58.16C437.671 58.16 437.015 58.0427 436.407 57.808C435.799 57.5733 435.303 57.1947 434.919 56.672Z" fill="#0095DA"/>
<path d="M52.2704 49.7242C52.2383 49.6831 52.1972 49.6499 52.1503 49.627C52.1034 49.6042 52.0519 49.5923 51.9997 49.5923C51.9476 49.5923 51.8961 49.6042 51.8492 49.627C51.8023 49.6499 51.7612 49.6831 51.729 49.7242L46.9166 55.8129C46.8769 55.8635 46.8523 55.9243 46.8455 55.9883C46.8388 56.0523 46.8502 56.1169 46.8784 56.1748C46.9066 56.2326 46.9506 56.2813 47.0052 56.3153C47.0598 56.3493 47.1229 56.3673 47.1873 56.3672H50.3626V66.7828C50.3626 66.9719 50.5173 67.1266 50.7064 67.1266H53.2845C53.4736 67.1266 53.6283 66.9719 53.6283 66.7828V56.3715H56.8122C57.1001 56.3715 57.2591 56.0406 57.0829 55.8172L52.2704 49.7242Z" fill="#8ED8F8"/>
<path d="M64.8648 45.7566C62.8969 40.566 57.8824 36.875 52.0086 36.875C46.1348 36.875 41.1203 40.5617 39.1523 45.7523C35.4699 46.7191 32.75 50.075 32.75 54.0625C32.75 58.8105 36.5957 62.6562 41.3395 62.6562H43.0625C43.2516 62.6562 43.4062 62.5016 43.4062 62.3125V59.7344C43.4062 59.5453 43.2516 59.3906 43.0625 59.3906H41.3395C39.8914 59.3906 38.5293 58.8148 37.5152 57.7707C36.5055 56.7309 35.9684 55.3301 36.0156 53.8777C36.0543 52.7434 36.441 51.6777 37.1414 50.7797C37.859 49.8645 38.8645 49.1984 39.9816 48.902L41.6102 48.4766L42.2074 46.9039C42.577 45.9242 43.0926 45.009 43.7414 44.1797C44.3819 43.3577 45.1407 42.6352 45.993 42.0355C47.759 40.7938 49.8387 40.1363 52.0086 40.1363C54.1785 40.1363 56.2582 40.7938 58.0242 42.0355C58.8793 42.6371 59.6355 43.359 60.2758 44.1797C60.9246 45.009 61.4402 45.9285 61.8098 46.9039L62.4027 48.4723L64.027 48.902C66.3559 49.5293 67.9844 51.6477 67.9844 54.0625C67.9844 55.4848 67.4301 56.8254 66.4246 57.8309C65.9315 58.3268 65.3449 58.7201 64.6988 58.9878C64.0527 59.2555 63.3599 59.3925 62.6605 59.3906H60.9375C60.7484 59.3906 60.5938 59.5453 60.5938 59.7344V62.3125C60.5938 62.5016 60.7484 62.6562 60.9375 62.6562H62.6605C67.4043 62.6562 71.25 58.8105 71.25 54.0625C71.25 50.0793 68.5387 46.7277 64.8648 45.7566Z" fill="#8ED8F8"/>
<path d="M89.292 47.2C89.9733 47.2 90.5707 47.3307 91.084 47.592C91.6067 47.844 92.0407 48.1987 92.386 48.656C92.7313 49.1133 92.988 49.6407 93.156 50.238C93.3333 50.826 93.422 51.4467 93.422 52.1C93.422 52.996 93.268 53.8173 92.96 54.564C92.652 55.3013 92.1947 55.894 91.588 56.342C90.9813 56.7807 90.216 57 89.292 57H85.792C85.6333 57 85.498 56.944 85.386 56.832C85.2833 56.72 85.232 56.5847 85.232 56.426V47.76C85.232 47.6013 85.2833 47.4707 85.386 47.368C85.498 47.256 85.6333 47.2 85.792 47.2H89.292ZM89.152 55.908C89.8707 55.908 90.454 55.7353 90.902 55.39C91.3593 55.0447 91.6907 54.5827 91.896 54.004C92.1107 53.4253 92.218 52.7907 92.218 52.1C92.218 51.596 92.1573 51.1153 92.036 50.658C91.924 50.1913 91.742 49.7807 91.49 49.426C91.2473 49.0713 90.93 48.7913 90.538 48.586C90.1553 48.3807 89.6933 48.278 89.152 48.278H86.282L86.394 48.166V56.048L86.31 55.908H89.152ZM95.6448 57C95.4862 57 95.3508 56.944 95.2388 56.832C95.1362 56.72 95.0848 56.5847 95.0848 56.426V50.322C95.0848 50.1633 95.1362 50.0327 95.2388 49.93C95.3508 49.818 95.4862 49.762 95.6448 49.762C95.8128 49.762 95.9482 49.818 96.0508 49.93C96.1535 50.0327 96.2048 50.1633 96.2048 50.322V52.17L96.0368 51.876C96.0928 51.5867 96.1908 51.3067 96.3308 51.036C96.4802 50.756 96.6668 50.5087 96.8908 50.294C97.1148 50.07 97.3715 49.8973 97.6608 49.776C97.9502 49.6453 98.2675 49.58 98.6128 49.58C98.8182 49.58 99.0048 49.6313 99.1728 49.734C99.3502 49.8273 99.4388 49.9627 99.4388 50.14C99.4388 50.336 99.3875 50.4807 99.2848 50.574C99.1822 50.6673 99.0655 50.714 98.9348 50.714C98.8135 50.714 98.6968 50.6907 98.5848 50.644C98.4728 50.588 98.3328 50.56 98.1648 50.56C97.9315 50.56 97.6982 50.6253 97.4648 50.756C97.2408 50.8773 97.0308 51.0547 96.8348 51.288C96.6482 51.5213 96.4942 51.7873 96.3728 52.086C96.2608 52.3753 96.2048 52.688 96.2048 53.024V56.426C96.2048 56.5847 96.1488 56.72 96.0368 56.832C95.9342 56.944 95.8035 57 95.6448 57ZM106.434 49.692C106.602 49.692 106.737 49.748 106.84 49.86C106.943 49.9627 106.994 50.0933 106.994 50.252V56.426C106.994 56.5847 106.938 56.72 106.826 56.832C106.723 56.944 106.593 57 106.434 57C106.275 57 106.14 56.944 106.028 56.832C105.925 56.72 105.874 56.5847 105.874 56.426V55.096L106.14 55.068C106.14 55.2733 106.07 55.4973 105.93 55.74C105.79 55.9827 105.599 56.2113 105.356 56.426C105.113 56.6313 104.829 56.804 104.502 56.944C104.175 57.0747 103.821 57.14 103.438 57.14C102.803 57.14 102.229 56.9767 101.716 56.65C101.212 56.314 100.815 55.8613 100.526 55.292C100.237 54.7227 100.092 54.074 100.092 53.346C100.092 52.6087 100.237 51.96 100.526 51.4C100.825 50.8307 101.221 50.3873 101.716 50.07C102.22 49.7433 102.785 49.58 103.41 49.58C103.811 49.58 104.185 49.6453 104.53 49.776C104.875 49.9067 105.174 50.084 105.426 50.308C105.687 50.532 105.888 50.7793 106.028 51.05C106.168 51.3207 106.238 51.5913 106.238 51.862L105.874 51.778V50.252C105.874 50.0933 105.925 49.9627 106.028 49.86C106.14 49.748 106.275 49.692 106.434 49.692ZM103.55 56.104C104.017 56.104 104.427 55.9827 104.782 55.74C105.146 55.4973 105.431 55.1707 105.636 54.76C105.841 54.34 105.944 53.8687 105.944 53.346C105.944 52.8327 105.841 52.3707 105.636 51.96C105.431 51.54 105.146 51.2133 104.782 50.98C104.427 50.7373 104.017 50.616 103.55 50.616C103.093 50.616 102.682 50.7327 102.318 50.966C101.963 51.1993 101.683 51.5213 101.478 51.932C101.273 52.3427 101.17 52.814 101.17 53.346C101.17 53.8687 101.273 54.34 101.478 54.76C101.683 55.1707 101.963 55.4973 102.318 55.74C102.682 55.9827 103.093 56.104 103.55 56.104ZM112.039 49.58C112.45 49.58 112.828 49.65 113.173 49.79C113.518 49.9207 113.817 50.0933 114.069 50.308C114.33 50.5227 114.531 50.7467 114.671 50.98C114.82 51.2133 114.895 51.4327 114.895 51.638L114.615 51.47V50.252C114.615 50.0933 114.666 49.9627 114.769 49.86C114.881 49.748 115.016 49.692 115.175 49.692C115.343 49.692 115.478 49.748 115.581 49.86C115.684 49.9627 115.735 50.0933 115.735 50.252V56.384C115.735 57.1493 115.572 57.784 115.245 58.288C114.928 58.792 114.498 59.17 113.957 59.422C113.416 59.674 112.814 59.8 112.151 59.8C111.871 59.8 111.558 59.7627 111.213 59.688C110.877 59.6133 110.578 59.52 110.317 59.408C110.056 59.3053 109.892 59.198 109.827 59.086C109.687 58.9927 109.598 58.8853 109.561 58.764C109.533 58.652 109.552 58.5447 109.617 58.442C109.71 58.3113 109.822 58.246 109.953 58.246C110.084 58.246 110.252 58.288 110.457 58.372C110.55 58.4 110.686 58.4467 110.863 58.512C111.04 58.5773 111.246 58.6333 111.479 58.68C111.712 58.736 111.941 58.764 112.165 58.764C112.958 58.764 113.565 58.554 113.985 58.134C114.405 57.7233 114.615 57.1773 114.615 56.496V55.194L114.769 55.264C114.713 55.5253 114.601 55.768 114.433 55.992C114.265 56.216 114.055 56.4167 113.803 56.594C113.56 56.762 113.285 56.8973 112.977 57C112.678 57.0933 112.375 57.14 112.067 57.14C111.414 57.14 110.826 56.9767 110.303 56.65C109.79 56.3233 109.379 55.8753 109.071 55.306C108.772 54.7367 108.623 54.088 108.623 53.36C108.623 52.6227 108.772 51.9693 109.071 51.4C109.379 50.8307 109.79 50.3873 110.303 50.07C110.816 49.7433 111.395 49.58 112.039 49.58ZM112.193 50.616C111.708 50.616 111.278 50.7373 110.905 50.98C110.532 51.2133 110.238 51.5353 110.023 51.946C109.808 52.3567 109.701 52.828 109.701 53.36C109.701 53.8733 109.808 54.34 110.023 54.76C110.238 55.1707 110.532 55.4973 110.905 55.74C111.278 55.9827 111.708 56.104 112.193 56.104C112.678 56.104 113.108 55.9873 113.481 55.754C113.854 55.5113 114.148 55.1847 114.363 54.774C114.578 54.3633 114.685 53.892 114.685 53.36C114.685 52.8187 114.578 52.3427 114.363 51.932C114.148 51.5213 113.854 51.1993 113.481 50.966C113.108 50.7327 112.678 50.616 112.193 50.616ZM124.463 57.14C123.8 57.14 123.212 56.9907 122.699 56.692C122.186 56.384 121.78 55.992 121.481 55.516C121.192 55.0307 121.047 54.522 121.047 53.99C121.047 53.5607 121.126 53.1547 121.285 52.772C121.453 52.3893 121.7 52.0487 122.027 51.75C122.363 51.442 122.788 51.1947 123.301 51.008L124.071 51.792C123.371 51.9413 122.881 52.2027 122.601 52.576C122.33 52.94 122.195 53.3553 122.195 53.822C122.195 54.1953 122.284 54.5547 122.461 54.9C122.638 55.2453 122.909 55.5253 123.273 55.74C123.646 55.9547 124.108 56.062 124.659 56.062C125.21 56.062 125.69 55.964 126.101 55.768C126.512 55.572 126.857 55.306 127.137 54.97C127.417 54.634 127.646 54.2607 127.823 53.85C128 53.4393 128.122 53.024 128.187 52.604C128.206 52.492 128.252 52.4033 128.327 52.338C128.402 52.2727 128.518 52.24 128.677 52.24C128.836 52.24 128.962 52.3053 129.055 52.436C129.158 52.5667 129.195 52.7207 129.167 52.898C129.092 53.4207 128.938 53.934 128.705 54.438C128.472 54.942 128.164 55.3993 127.781 55.81C127.398 56.2113 126.932 56.5333 126.381 56.776C125.83 57.0187 125.191 57.14 124.463 57.14ZM129.447 56.986C129.372 56.986 129.307 56.9767 129.251 56.958C129.204 56.93 129.162 56.9067 129.125 56.888C128.518 56.3933 127.944 55.9267 127.403 55.488C126.871 55.0493 126.353 54.5967 125.849 54.13C125.345 53.654 124.836 53.122 124.323 52.534C123.996 52.1607 123.698 51.806 123.427 51.47C123.166 51.134 122.956 50.8027 122.797 50.476C122.638 50.1493 122.559 49.8133 122.559 49.468C122.559 49.02 122.671 48.614 122.895 48.25C123.119 47.886 123.436 47.5967 123.847 47.382C124.267 47.1673 124.762 47.06 125.331 47.06C125.994 47.06 126.558 47.1813 127.025 47.424C127.492 47.6573 127.814 47.9513 127.991 48.306C128 48.3153 128.014 48.3573 128.033 48.432C128.061 48.4973 128.075 48.572 128.075 48.656C128.075 48.768 128.028 48.8753 127.935 48.978C127.851 49.0713 127.73 49.118 127.571 49.118C127.478 49.118 127.398 49.0993 127.333 49.062C127.268 49.0153 127.216 48.9687 127.179 48.922C126.992 48.6513 126.754 48.4367 126.465 48.278C126.176 48.1193 125.798 48.04 125.331 48.04C124.808 48.04 124.412 48.1707 124.141 48.432C123.87 48.6933 123.735 49.0293 123.735 49.44C123.735 49.72 123.819 50.0187 123.987 50.336C124.164 50.644 124.379 50.952 124.631 51.26C124.892 51.5587 125.144 51.8433 125.387 52.114C125.732 52.4967 126.101 52.8793 126.493 53.262C126.885 53.6353 127.277 53.9947 127.669 54.34C128.061 54.676 128.43 54.9887 128.775 55.278C129.13 55.558 129.433 55.796 129.685 55.992C129.769 56.0667 129.83 56.1413 129.867 56.216C129.904 56.2907 129.923 56.3793 129.923 56.482C129.923 56.5753 129.881 56.6827 129.797 56.804C129.722 56.9253 129.606 56.986 129.447 56.986ZM141.065 46.64C141.233 46.64 141.368 46.696 141.471 46.808C141.573 46.9107 141.625 47.0413 141.625 47.2V56.426C141.625 56.5847 141.569 56.72 141.457 56.832C141.354 56.944 141.223 57 141.065 57C140.906 57 140.771 56.944 140.659 56.832C140.556 56.72 140.505 56.5847 140.505 56.426V55.096L140.771 54.998C140.771 55.222 140.701 55.46 140.561 55.712C140.43 55.9547 140.239 56.1833 139.987 56.398C139.744 56.6127 139.459 56.79 139.133 56.93C138.806 57.07 138.451 57.14 138.069 57.14C137.434 57.14 136.865 56.9767 136.361 56.65C135.857 56.3233 135.455 55.8753 135.157 55.306C134.867 54.7367 134.723 54.088 134.723 53.36C134.723 52.6227 134.867 51.9693 135.157 51.4C135.455 50.8307 135.852 50.3873 136.347 50.07C136.851 49.7433 137.415 49.58 138.041 49.58C138.433 49.58 138.797 49.6453 139.133 49.776C139.478 49.9067 139.781 50.084 140.043 50.308C140.304 50.532 140.505 50.7793 140.645 51.05C140.794 51.3207 140.869 51.5913 140.869 51.862L140.505 51.778V47.2C140.505 47.0413 140.556 46.9107 140.659 46.808C140.771 46.696 140.906 46.64 141.065 46.64ZM138.181 56.104C138.657 56.104 139.072 55.9873 139.427 55.754C139.781 55.5113 140.061 55.1847 140.267 54.774C140.472 54.354 140.575 53.8827 140.575 53.36C140.575 52.828 140.472 52.3567 140.267 51.946C140.061 51.5353 139.777 51.2133 139.413 50.98C139.058 50.7373 138.647 50.616 138.181 50.616C137.723 50.616 137.313 50.7373 136.949 50.98C136.594 51.2133 136.314 51.5353 136.109 51.946C135.903 52.3567 135.801 52.828 135.801 53.36C135.801 53.8733 135.903 54.34 136.109 54.76C136.314 55.1707 136.594 55.4973 136.949 55.74C137.313 55.9827 137.723 56.104 138.181 56.104ZM144.262 57C144.103 57 143.968 56.944 143.856 56.832C143.753 56.72 143.702 56.5847 143.702 56.426V50.322C143.702 50.1633 143.753 50.0327 143.856 49.93C143.968 49.818 144.103 49.762 144.262 49.762C144.43 49.762 144.565 49.818 144.668 49.93C144.771 50.0327 144.822 50.1633 144.822 50.322V52.17L144.654 51.876C144.71 51.5867 144.808 51.3067 144.948 51.036C145.097 50.756 145.284 50.5087 145.508 50.294C145.732 50.07 145.989 49.8973 146.278 49.776C146.567 49.6453 146.885 49.58 147.23 49.58C147.435 49.58 147.622 49.6313 147.79 49.734C147.967 49.8273 148.056 49.9627 148.056 50.14C148.056 50.336 148.005 50.4807 147.902 50.574C147.799 50.6673 147.683 50.714 147.552 50.714C147.431 50.714 147.314 50.6907 147.202 50.644C147.09 50.588 146.95 50.56 146.782 50.56C146.549 50.56 146.315 50.6253 146.082 50.756C145.858 50.8773 145.648 51.0547 145.452 51.288C145.265 51.5213 145.111 51.7873 144.99 52.086C144.878 52.3753 144.822 52.688 144.822 53.024V56.426C144.822 56.5847 144.766 56.72 144.654 56.832C144.551 56.944 144.421 57 144.262 57ZM155.811 53.36C155.811 54.088 155.652 54.7367 155.335 55.306C155.017 55.8753 154.583 56.3233 154.033 56.65C153.491 56.9767 152.875 57.14 152.185 57.14C151.503 57.14 150.887 56.9767 150.337 56.65C149.795 56.3233 149.361 55.8753 149.035 55.306C148.717 54.7367 148.559 54.088 148.559 53.36C148.559 52.632 148.717 51.9833 149.035 51.414C149.361 50.8447 149.795 50.3967 150.337 50.07C150.887 49.7433 151.503 49.58 152.185 49.58C152.875 49.58 153.491 49.7433 154.033 50.07C154.583 50.3967 155.017 50.8447 155.335 51.414C155.652 51.9833 155.811 52.632 155.811 53.36ZM154.691 53.36C154.691 52.8187 154.579 52.3427 154.355 51.932C154.14 51.5213 153.841 51.1993 153.459 50.966C153.085 50.7327 152.661 50.616 152.185 50.616C151.718 50.616 151.293 50.7327 150.911 50.966C150.528 51.1993 150.225 51.5213 150.001 51.932C149.786 52.3427 149.679 52.8187 149.679 53.36C149.679 53.892 149.786 54.3633 150.001 54.774C150.225 55.1847 150.528 55.5113 150.911 55.754C151.293 55.9873 151.718 56.104 152.185 56.104C152.661 56.104 153.085 55.9873 153.459 55.754C153.841 55.5113 154.14 55.1847 154.355 54.774C154.579 54.3633 154.691 53.892 154.691 53.36ZM160.999 49.65C161.633 49.65 162.203 49.8087 162.707 50.126C163.211 50.4433 163.607 50.882 163.897 51.442C164.195 52.002 164.345 52.646 164.345 53.374C164.345 54.0927 164.195 54.7367 163.897 55.306C163.607 55.866 163.211 56.3093 162.707 56.636C162.212 56.9533 161.652 57.112 161.027 57.112C160.681 57.112 160.355 57.0607 160.047 56.958C159.748 56.846 159.473 56.706 159.221 56.538C158.978 56.3607 158.773 56.1647 158.605 55.95C158.437 55.726 158.315 55.5067 158.241 55.292L158.549 55.096V59.226C158.549 59.3847 158.497 59.52 158.395 59.632C158.292 59.744 158.157 59.8 157.989 59.8C157.83 59.8 157.695 59.744 157.583 59.632C157.48 59.5293 157.429 59.394 157.429 59.226V50.28C157.429 50.1213 157.48 49.9907 157.583 49.888C157.695 49.776 157.83 49.72 157.989 49.72C158.157 49.72 158.292 49.776 158.395 49.888C158.497 49.9907 158.549 50.1213 158.549 50.28V51.526L158.339 51.414C158.404 51.1807 158.516 50.9567 158.675 50.742C158.843 50.5273 159.043 50.3407 159.277 50.182C159.519 50.014 159.785 49.8833 160.075 49.79C160.373 49.6967 160.681 49.65 160.999 49.65ZM160.873 50.686C160.406 50.686 159.991 50.8027 159.627 51.036C159.272 51.2693 158.992 51.5867 158.787 51.988C158.591 52.3893 158.493 52.8513 158.493 53.374C158.493 53.8873 158.591 54.3493 158.787 54.76C158.992 55.1707 159.272 55.4927 159.627 55.726C159.991 55.9593 160.406 56.076 160.873 56.076C161.339 56.076 161.75 55.9593 162.105 55.726C162.459 55.4927 162.739 55.1707 162.945 54.76C163.15 54.3493 163.253 53.8873 163.253 53.374C163.253 52.8513 163.15 52.3893 162.945 51.988C162.739 51.5867 162.459 51.2693 162.105 51.036C161.75 50.8027 161.339 50.686 160.873 50.686ZM175.233 49.65C175.392 49.65 175.523 49.706 175.625 49.818C175.737 49.9207 175.793 50.0513 175.793 50.21V56.314C175.793 57.098 175.639 57.7467 175.331 58.26C175.023 58.7827 174.608 59.17 174.085 59.422C173.572 59.674 172.989 59.8 172.335 59.8C171.971 59.8 171.621 59.7627 171.285 59.688C170.949 59.6133 170.674 59.5153 170.459 59.394C170.282 59.31 170.156 59.2027 170.081 59.072C170.016 58.9507 170.007 58.82 170.053 58.68C170.119 58.512 170.212 58.3953 170.333 58.33C170.464 58.2647 170.599 58.2647 170.739 58.33C170.889 58.3953 171.103 58.484 171.383 58.596C171.673 58.7173 171.995 58.778 172.349 58.778C172.835 58.778 173.25 58.6847 173.595 58.498C173.941 58.3113 174.207 58.036 174.393 57.672C174.58 57.3173 174.673 56.874 174.673 56.342V55.348L174.841 55.698C174.692 55.9873 174.491 56.2393 174.239 56.454C173.987 56.6687 173.698 56.8367 173.371 56.958C173.045 57.0793 172.685 57.14 172.293 57.14C171.761 57.14 171.309 57.028 170.935 56.804C170.571 56.5707 170.291 56.2533 170.095 55.852C169.909 55.4413 169.815 54.97 169.815 54.438V50.21C169.815 50.0513 169.867 49.9207 169.969 49.818C170.081 49.706 170.217 49.65 170.375 49.65C170.543 49.65 170.679 49.706 170.781 49.818C170.884 49.9207 170.935 50.0513 170.935 50.21V54.186C170.935 54.8207 171.075 55.3013 171.355 55.628C171.635 55.9453 172.069 56.104 172.657 56.104C173.031 56.104 173.367 56.02 173.665 55.852C173.973 55.684 174.216 55.4553 174.393 55.166C174.58 54.8673 174.673 54.5407 174.673 54.186V50.21C174.673 50.0513 174.725 49.9207 174.827 49.818C174.93 49.706 175.065 49.65 175.233 49.65ZM184.604 53.36C184.604 54.088 184.445 54.7367 184.128 55.306C183.81 55.8753 183.376 56.3233 182.826 56.65C182.284 56.9767 181.668 57.14 180.978 57.14C180.296 57.14 179.68 56.9767 179.13 56.65C178.588 56.3233 178.154 55.8753 177.828 55.306C177.51 54.7367 177.352 54.088 177.352 53.36C177.352 52.632 177.51 51.9833 177.828 51.414C178.154 50.8447 178.588 50.3967 179.13 50.07C179.68 49.7433 180.296 49.58 180.978 49.58C181.668 49.58 182.284 49.7433 182.826 50.07C183.376 50.3967 183.81 50.8447 184.128 51.414C184.445 51.9833 184.604 52.632 184.604 53.36ZM183.484 53.36C183.484 52.8187 183.372 52.3427 183.148 51.932C182.933 51.5213 182.634 51.1993 182.252 50.966C181.878 50.7327 181.454 50.616 180.978 50.616C180.511 50.616 180.086 50.7327 179.704 50.966C179.321 51.1993 179.018 51.5213 178.794 51.932C178.579 52.3427 178.472 52.8187 178.472 53.36C178.472 53.892 178.579 54.3633 178.794 54.774C179.018 55.1847 179.321 55.5113 179.704 55.754C180.086 55.9873 180.511 56.104 180.978 56.104C181.454 56.104 181.878 55.9873 182.252 55.754C182.634 55.5113 182.933 55.1847 183.148 54.774C183.372 54.3633 183.484 53.892 183.484 53.36ZM191.64 49.762C191.808 49.762 191.943 49.818 192.046 49.93C192.148 50.0327 192.2 50.1633 192.2 50.322V54.144C192.2 55.0867 191.934 55.8193 191.402 56.342C190.879 56.8553 190.146 57.112 189.204 57.112C188.27 57.112 187.538 56.8553 187.006 56.342C186.483 55.8193 186.222 55.0867 186.222 54.144V50.322C186.222 50.1633 186.273 50.0327 186.376 49.93C186.488 49.818 186.623 49.762 186.782 49.762C186.95 49.762 187.085 49.818 187.188 49.93C187.29 50.0327 187.342 50.1633 187.342 50.322V54.144C187.342 54.7787 187.505 55.2593 187.832 55.586C188.158 55.9127 188.616 56.076 189.204 56.076C189.81 56.076 190.272 55.9127 190.59 55.586C190.916 55.2593 191.08 54.7787 191.08 54.144V50.322C191.08 50.1633 191.131 50.0327 191.234 49.93C191.346 49.818 191.481 49.762 191.64 49.762ZM194.834 57C194.676 57 194.54 56.944 194.428 56.832C194.326 56.72 194.274 56.5847 194.274 56.426V50.322C194.274 50.1633 194.326 50.0327 194.428 49.93C194.54 49.818 194.676 49.762 194.834 49.762C195.002 49.762 195.138 49.818 195.24 49.93C195.343 50.0327 195.394 50.1633 195.394 50.322V52.17L195.226 51.876C195.282 51.5867 195.38 51.3067 195.52 51.036C195.67 50.756 195.856 50.5087 196.08 50.294C196.304 50.07 196.561 49.8973 196.85 49.776C197.14 49.6453 197.457 49.58 197.802 49.58C198.008 49.58 198.194 49.6313 198.362 49.734C198.54 49.8273 198.628 49.9627 198.628 50.14C198.628 50.336 198.577 50.4807 198.474 50.574C198.372 50.6673 198.255 50.714 198.124 50.714C198.003 50.714 197.886 50.6907 197.774 50.644C197.662 50.588 197.522 50.56 197.354 50.56C197.121 50.56 196.888 50.6253 196.654 50.756C196.43 50.8773 196.22 51.0547 196.024 51.288C195.838 51.5213 195.684 51.7873 195.562 52.086C195.45 52.3753 195.394 52.688 195.394 53.024V56.426C195.394 56.5847 195.338 56.72 195.226 56.832C195.124 56.944 194.993 57 194.834 57ZM206.773 46.668C206.932 46.668 207.095 46.6867 207.263 46.724C207.44 46.7613 207.59 46.8267 207.711 46.92C207.842 47.0133 207.907 47.1393 207.907 47.298C207.907 47.4473 207.86 47.5733 207.767 47.676C207.674 47.7693 207.562 47.816 207.431 47.816C207.347 47.816 207.23 47.7927 207.081 47.746C206.932 47.69 206.778 47.662 206.619 47.662C206.404 47.662 206.227 47.7087 206.087 47.802C205.956 47.8953 205.858 48.0213 205.793 48.18C205.737 48.3293 205.709 48.4973 205.709 48.684V56.426C205.709 56.5847 205.653 56.72 205.541 56.832C205.438 56.944 205.308 57 205.149 57C204.981 57 204.846 56.944 204.743 56.832C204.64 56.72 204.589 56.5847 204.589 56.426V48.698C204.589 48.0727 204.78 47.578 205.163 47.214C205.555 46.85 206.092 46.668 206.773 46.668ZM207.165 49.874C207.314 49.874 207.44 49.9253 207.543 50.028C207.646 50.1213 207.697 50.2427 207.697 50.392C207.697 50.5413 207.646 50.6673 207.543 50.77C207.44 50.8633 207.314 50.91 207.165 50.91H203.651C203.502 50.91 203.376 50.8587 203.273 50.756C203.17 50.6533 203.119 50.532 203.119 50.392C203.119 50.2333 203.17 50.1073 203.273 50.014C203.376 49.9207 203.502 49.874 203.651 49.874H207.165ZM210.077 56.426C210.077 56.5847 210.021 56.72 209.909 56.832C209.806 56.944 209.676 57 209.517 57C209.349 57 209.214 56.944 209.111 56.832C209.008 56.72 208.957 56.5847 208.957 56.426V50.21C208.957 50.0513 209.008 49.9207 209.111 49.818C209.223 49.706 209.358 49.65 209.517 49.65C209.676 49.65 209.806 49.706 209.909 49.818C210.021 49.9207 210.077 50.0513 210.077 50.21V56.426ZM209.517 48.712C209.284 48.712 209.111 48.6653 208.999 48.572C208.887 48.4787 208.831 48.334 208.831 48.138V47.942C208.831 47.746 208.892 47.6013 209.013 47.508C209.134 47.4147 209.307 47.368 209.531 47.368C209.755 47.368 209.923 47.4147 210.035 47.508C210.147 47.6013 210.203 47.746 210.203 47.942V48.138C210.203 48.334 210.142 48.4787 210.021 48.572C209.909 48.6653 209.741 48.712 209.517 48.712ZM213.321 56.426C213.321 56.5847 213.265 56.72 213.153 56.832C213.041 56.944 212.905 57 212.747 57C212.588 57 212.457 56.944 212.355 56.832C212.252 56.72 212.201 56.5847 212.201 56.426V47.2C212.201 47.0413 212.252 46.9107 212.355 46.808C212.467 46.696 212.602 46.64 212.761 46.64C212.929 46.64 213.064 46.696 213.167 46.808C213.269 46.9107 213.321 47.0413 213.321 47.2V56.426ZM218.632 57.14C217.886 57.14 217.232 56.9813 216.672 56.664C216.112 56.3467 215.678 55.9127 215.37 55.362C215.062 54.802 214.908 54.158 214.908 53.43C214.908 52.618 215.067 51.9273 215.384 51.358C215.711 50.7793 216.131 50.3407 216.644 50.042C217.158 49.734 217.704 49.58 218.282 49.58C218.721 49.58 219.136 49.6593 219.528 49.818C219.93 49.9767 220.284 50.21 220.592 50.518C220.91 50.8167 221.162 51.1807 221.348 51.61C221.535 52.03 221.633 52.5013 221.642 53.024C221.633 53.1733 221.572 53.2993 221.46 53.402C221.348 53.5047 221.218 53.556 221.068 53.556H215.538L215.286 52.59H220.676L220.452 52.786V52.478C220.424 52.0953 220.298 51.7687 220.074 51.498C219.86 51.218 219.594 51.0033 219.276 50.854C218.959 50.7047 218.628 50.63 218.282 50.63C218.002 50.63 217.722 50.6813 217.442 50.784C217.172 50.8773 216.924 51.036 216.7 51.26C216.486 51.4747 216.313 51.7547 216.182 52.1C216.052 52.4453 215.986 52.8607 215.986 53.346C215.986 53.8873 216.094 54.3633 216.308 54.774C216.532 55.1847 216.84 55.5113 217.232 55.754C217.624 55.9873 218.077 56.104 218.59 56.104C218.926 56.104 219.216 56.062 219.458 55.978C219.701 55.894 219.906 55.7913 220.074 55.67C220.252 55.5393 220.401 55.4087 220.522 55.278C220.644 55.194 220.765 55.152 220.886 55.152C221.017 55.152 221.129 55.1987 221.222 55.292C221.316 55.3853 221.362 55.4973 221.362 55.628C221.362 55.7867 221.288 55.9267 221.138 56.048C220.868 56.3373 220.508 56.594 220.06 56.818C219.622 57.0327 219.146 57.14 218.632 57.14ZM222.853 55.852C222.769 55.7307 222.731 55.6047 222.741 55.474C222.75 55.334 222.829 55.2127 222.979 55.11C223.072 55.0447 223.179 55.0167 223.301 55.026C223.431 55.0353 223.548 55.096 223.651 55.208C223.912 55.516 224.211 55.7633 224.547 55.95C224.883 56.1273 225.293 56.216 225.779 56.216C226.003 56.2067 226.227 56.1693 226.451 56.104C226.675 56.0387 226.861 55.9267 227.011 55.768C227.169 55.6 227.249 55.3807 227.249 55.11C227.249 54.8487 227.169 54.6433 227.011 54.494C226.852 54.3353 226.647 54.2093 226.395 54.116C226.143 54.0133 225.867 53.9247 225.569 53.85C225.261 53.766 224.957 53.6727 224.659 53.57C224.36 53.458 224.089 53.3227 223.847 53.164C223.613 52.996 223.422 52.7907 223.273 52.548C223.133 52.296 223.063 51.9927 223.063 51.638C223.063 51.218 223.175 50.854 223.399 50.546C223.632 50.238 223.94 50 224.323 49.832C224.715 49.664 225.139 49.58 225.597 49.58C225.858 49.58 226.129 49.6127 226.409 49.678C226.698 49.734 226.978 49.8367 227.249 49.986C227.519 50.126 227.757 50.322 227.963 50.574C228.047 50.6673 228.093 50.784 228.103 50.924C228.112 51.064 228.051 51.19 227.921 51.302C227.818 51.3767 227.701 51.4093 227.571 51.4C227.449 51.3907 227.347 51.344 227.263 51.26C227.067 51.0267 226.819 50.8493 226.521 50.728C226.231 50.5973 225.909 50.532 225.555 50.532C225.331 50.532 225.111 50.5647 224.897 50.63C224.682 50.6953 224.5 50.8073 224.351 50.966C224.211 51.1153 224.141 51.3253 224.141 51.596C224.15 51.848 224.234 52.0533 224.393 52.212C224.551 52.3707 224.766 52.5013 225.037 52.604C225.307 52.6973 225.606 52.7907 225.933 52.884C226.231 52.9587 226.516 53.0473 226.787 53.15C227.067 53.2433 227.319 53.3693 227.543 53.528C227.767 53.6867 227.944 53.892 228.075 54.144C228.205 54.3867 228.271 54.6947 228.271 55.068C228.271 55.4973 228.149 55.8707 227.907 56.188C227.664 56.496 227.342 56.734 226.941 56.902C226.549 57.0607 226.124 57.14 225.667 57.14C225.153 57.14 224.645 57.042 224.141 56.846C223.646 56.65 223.217 56.3187 222.853 55.852ZM237.245 49.65C237.861 49.65 238.346 49.7853 238.701 50.056C239.065 50.3173 239.322 50.672 239.471 51.12C239.63 51.5587 239.709 52.0487 239.709 52.59V56.426C239.709 56.5847 239.653 56.72 239.541 56.832C239.438 56.944 239.308 57 239.149 57C238.99 57 238.855 56.944 238.743 56.832C238.64 56.72 238.589 56.5847 238.589 56.426V52.59C238.589 52.2353 238.538 51.918 238.435 51.638C238.332 51.3487 238.16 51.12 237.917 50.952C237.684 50.7747 237.362 50.686 236.951 50.686C236.568 50.686 236.218 50.7747 235.901 50.952C235.584 51.12 235.332 51.3487 235.145 51.638C234.958 51.918 234.865 52.2353 234.865 52.59V56.426C234.865 56.5847 234.809 56.72 234.697 56.832C234.594 56.944 234.464 57 234.305 57C234.146 57 234.011 56.944 233.899 56.832C233.796 56.72 233.745 56.5847 233.745 56.426V47.2C233.745 47.0413 233.796 46.9107 233.899 46.808C234.011 46.696 234.146 46.64 234.305 46.64C234.473 46.64 234.608 46.696 234.711 46.808C234.814 46.9107 234.865 47.0413 234.865 47.2V51.386L234.585 51.694C234.632 51.4513 234.734 51.2087 234.893 50.966C235.052 50.714 235.252 50.49 235.495 50.294C235.738 50.098 236.008 49.944 236.307 49.832C236.606 49.7107 236.918 49.65 237.245 49.65ZM245.06 57.14C244.313 57.14 243.66 56.9813 243.1 56.664C242.54 56.3467 242.106 55.9127 241.798 55.362C241.49 54.802 241.336 54.158 241.336 53.43C241.336 52.618 241.495 51.9273 241.812 51.358C242.139 50.7793 242.559 50.3407 243.072 50.042C243.585 49.734 244.131 49.58 244.71 49.58C245.149 49.58 245.564 49.6593 245.956 49.818C246.357 49.9767 246.712 50.21 247.02 50.518C247.337 50.8167 247.589 51.1807 247.776 51.61C247.963 52.03 248.061 52.5013 248.07 53.024C248.061 53.1733 248 53.2993 247.888 53.402C247.776 53.5047 247.645 53.556 247.496 53.556H241.966L241.714 52.59H247.104L246.88 52.786V52.478C246.852 52.0953 246.726 51.7687 246.502 51.498C246.287 51.218 246.021 51.0033 245.704 50.854C245.387 50.7047 245.055 50.63 244.71 50.63C244.43 50.63 244.15 50.6813 243.87 50.784C243.599 50.8773 243.352 51.036 243.128 51.26C242.913 51.4747 242.741 51.7547 242.61 52.1C242.479 52.4453 242.414 52.8607 242.414 53.346C242.414 53.8873 242.521 54.3633 242.736 54.774C242.96 55.1847 243.268 55.5113 243.66 55.754C244.052 55.9873 244.505 56.104 245.018 56.104C245.354 56.104 245.643 56.062 245.886 55.978C246.129 55.894 246.334 55.7913 246.502 55.67C246.679 55.5393 246.829 55.4087 246.95 55.278C247.071 55.194 247.193 55.152 247.314 55.152C247.445 55.152 247.557 55.1987 247.65 55.292C247.743 55.3853 247.79 55.4973 247.79 55.628C247.79 55.7867 247.715 55.9267 247.566 56.048C247.295 56.3373 246.936 56.594 246.488 56.818C246.049 57.0327 245.573 57.14 245.06 57.14ZM250.246 57C250.088 57 249.952 56.944 249.84 56.832C249.738 56.72 249.686 56.5847 249.686 56.426V50.322C249.686 50.1633 249.738 50.0327 249.84 49.93C249.952 49.818 250.088 49.762 250.246 49.762C250.414 49.762 250.55 49.818 250.652 49.93C250.755 50.0327 250.806 50.1633 250.806 50.322V52.17L250.638 51.876C250.694 51.5867 250.792 51.3067 250.932 51.036C251.082 50.756 251.268 50.5087 251.492 50.294C251.716 50.07 251.973 49.8973 252.262 49.776C252.552 49.6453 252.869 49.58 253.214 49.58C253.42 49.58 253.606 49.6313 253.774 49.734C253.952 49.8273 254.04 49.9627 254.04 50.14C254.04 50.336 253.989 50.4807 253.886 50.574C253.784 50.6673 253.667 50.714 253.536 50.714C253.415 50.714 253.298 50.6907 253.186 50.644C253.074 50.588 252.934 50.56 252.766 50.56C252.533 50.56 252.3 50.6253 252.066 50.756C251.842 50.8773 251.632 51.0547 251.436 51.288C251.25 51.5213 251.096 51.7873 250.974 52.086C250.862 52.3753 250.806 52.688 250.806 53.024V56.426C250.806 56.5847 250.75 56.72 250.638 56.832C250.536 56.944 250.405 57 250.246 57ZM258.267 57.14C257.52 57.14 256.867 56.9813 256.307 56.664C255.747 56.3467 255.313 55.9127 255.005 55.362C254.697 54.802 254.543 54.158 254.543 53.43C254.543 52.618 254.702 51.9273 255.019 51.358C255.346 50.7793 255.766 50.3407 256.279 50.042C256.792 49.734 257.338 49.58 257.917 49.58C258.356 49.58 258.771 49.6593 259.163 49.818C259.564 49.9767 259.919 50.21 260.227 50.518C260.544 50.8167 260.796 51.1807 260.983 51.61C261.17 52.03 261.268 52.5013 261.277 53.024C261.268 53.1733 261.207 53.2993 261.095 53.402C260.983 53.5047 260.852 53.556 260.703 53.556H255.173L254.921 52.59H260.311L260.087 52.786V52.478C260.059 52.0953 259.933 51.7687 259.709 51.498C259.494 51.218 259.228 51.0033 258.911 50.854C258.594 50.7047 258.262 50.63 257.917 50.63C257.637 50.63 257.357 50.6813 257.077 50.784C256.806 50.8773 256.559 51.036 256.335 51.26C256.12 51.4747 255.948 51.7547 255.817 52.1C255.686 52.4453 255.621 52.8607 255.621 53.346C255.621 53.8873 255.728 54.3633 255.943 54.774C256.167 55.1847 256.475 55.5113 256.867 55.754C257.259 55.9873 257.712 56.104 258.225 56.104C258.561 56.104 258.85 56.062 259.093 55.978C259.336 55.894 259.541 55.7913 259.709 55.67C259.886 55.5393 260.036 55.4087 260.157 55.278C260.278 55.194 260.4 55.152 260.521 55.152C260.652 55.152 260.764 55.1987 260.857 55.292C260.95 55.3853 260.997 55.4973 260.997 55.628C260.997 55.7867 260.922 55.9267 260.773 56.048C260.502 56.3373 260.143 56.594 259.695 56.818C259.256 57.0327 258.78 57.14 258.267 57.14ZM273.553 53.36C273.553 54.088 273.394 54.7367 273.077 55.306C272.76 55.8753 272.326 56.3233 271.775 56.65C271.234 56.9767 270.618 57.14 269.927 57.14C269.246 57.14 268.63 56.9767 268.079 56.65C267.538 56.3233 267.104 55.8753 266.777 55.306C266.46 54.7367 266.301 54.088 266.301 53.36C266.301 52.632 266.46 51.9833 266.777 51.414C267.104 50.8447 267.538 50.3967 268.079 50.07C268.63 49.7433 269.246 49.58 269.927 49.58C270.618 49.58 271.234 49.7433 271.775 50.07C272.326 50.3967 272.76 50.8447 273.077 51.414C273.394 51.9833 273.553 52.632 273.553 53.36ZM272.433 53.36C272.433 52.8187 272.321 52.3427 272.097 51.932C271.882 51.5213 271.584 51.1993 271.201 50.966C270.828 50.7327 270.403 50.616 269.927 50.616C269.46 50.616 269.036 50.7327 268.653 50.966C268.27 51.1993 267.967 51.5213 267.743 51.932C267.528 52.3427 267.421 52.8187 267.421 53.36C267.421 53.892 267.528 54.3633 267.743 54.774C267.967 55.1847 268.27 55.5113 268.653 55.754C269.036 55.9873 269.46 56.104 269.927 56.104C270.403 56.104 270.828 55.9873 271.201 55.754C271.584 55.5113 271.882 55.1847 272.097 54.774C272.321 54.3633 272.433 53.892 272.433 53.36ZM275.731 57C275.572 57 275.437 56.944 275.325 56.832C275.222 56.72 275.171 56.5847 275.171 56.426V50.322C275.171 50.1633 275.222 50.0327 275.325 49.93C275.437 49.818 275.572 49.762 275.731 49.762C275.899 49.762 276.034 49.818 276.137 49.93C276.239 50.0327 276.291 50.1633 276.291 50.322V52.17L276.123 51.876C276.179 51.5867 276.277 51.3067 276.417 51.036C276.566 50.756 276.753 50.5087 276.977 50.294C277.201 50.07 277.457 49.8973 277.747 49.776C278.036 49.6453 278.353 49.58 278.699 49.58C278.904 49.58 279.091 49.6313 279.259 49.734C279.436 49.8273 279.525 49.9627 279.525 50.14C279.525 50.336 279.473 50.4807 279.371 50.574C279.268 50.6673 279.151 50.714 279.021 50.714C278.899 50.714 278.783 50.6907 278.671 50.644C278.559 50.588 278.419 50.56 278.251 50.56C278.017 50.56 277.784 50.6253 277.551 50.756C277.327 50.8773 277.117 51.0547 276.921 51.288C276.734 51.5213 276.58 51.7873 276.459 52.086C276.347 52.3753 276.291 52.688 276.291 53.024V56.426C276.291 56.5847 276.235 56.72 276.123 56.832C276.02 56.944 275.889 57 275.731 57Z" fill="#999999"/>
</svg>
